<?xml version="1.0" standalone="no"?>
<!DOCTYPE svg PUBLIC "-//W3C//DTD SVG 1.1//EN" "http://www.w3.org/Graphics/SVG/1.1/DTD/svg11.dtd" >
<svg xmlns="http://www.w3.org/2000/svg">
<metadata></metadata>
<defs>
<font id="handslabmedium" horiz-adv-x="1041" >
<font-face units-per-em="2048" ascent="1638" descent="-410" />
<missing-glyph horiz-adv-x="774" />
<glyph horiz-adv-x="0" />
<glyph unicode="&#xd;" horiz-adv-x="612" />
<glyph unicode=" "  horiz-adv-x="774" />
<glyph unicode="&#x09;" horiz-adv-x="774" />
<glyph unicode="&#xa0;" horiz-adv-x="774" />
<glyph unicode="!" horiz-adv-x="253" d="M24 663q11 17 22 104q4 42 17.5 118.5t30.5 145t26 89.5q7 15 20 71.5t22 72.5q11 21 28.5 23t34.5 -17q13 -16 -13 -109q-5 -21 -15.5 -56.5t-18 -64t-12.5 -46.5q-21 -76 -32.5 -201.5t1.5 -140.5q14 -18 9 -53q-2 -40 13 -68q14 -24 20 -77q2 -34 -3 -45t-17 -15 q-15 -2 -33.5 7.5t-31.5 26.5t-13 31q0 24 -19.5 41.5t-19.5 55t-14 65.5q-14 30 -2 42zM43.5 58q-11.5 30 9.5 65q13 28 78.5 26.5t88.5 -31.5q47 -63 -16 -113q-29 -24 -64.5 -21.5t-60 23.5t-36 51z" />
<glyph unicode="&#x22;" horiz-adv-x="594" d="M18.5 965.5q-0.5 63.5 20.5 193.5q26 174 33 185q9 14 41.5 9.5t39.5 -20.5q7 -23 -9 -96q-16 -72 -15.5 -171.5t17.5 -145.5q11 -28 11 -48.5t-13 -55.5q-22 -66 -56.5 -62t-52.5 74q-16 74 -16.5 137.5zM426 918q-11 50 26 204q38 154 48 167q7 14 31.5 11.5 t40.5 -19.5q8 -13 5.5 -28.5t-21.5 -54.5q-20 -41 -26 -78.5t-6 -136.5q-2 -76 -7 -115.5t-16 -57t-31 -17.5q-18 0 -25 39q-11 51 -19 86z" />
<glyph unicode="#" horiz-adv-x="1597" d="M18 781q0 18 35 32.5t91 16.5q81 3 164 14t92 21q14 13 21.5 108.5t2.5 191.5q-6 114 7 119q4 2 12 0q35 -7 45 -54.5t4 -179.5q-7 -162 -2 -172q10 -15 135.5 -0.5t143.5 31.5q22 21 27 95q2 28 4 45.5t4.5 32.5t5.5 24t7.5 28.5t8.5 38.5q9 38 27.5 53.5t34.5 -2.5 q13 -13 0 -79q-16 -61 -18 -144q-2 -7 -2 -18q-1 -51 17.5 -57t129.5 14q25 3 39 8q177 31 193 18q6 -6 7 -18q0 -23 -35 -33.5t-194 -38.5q-137 -25 -158 -43q-18 -16 -20.5 -74.5t18.5 -60.5q92 -7 162 23q46 21 147 39q333 73 345 58q15 -12 -19 -20l-46 -9 q-47 -9 -153 -43q-33 -9 -100 -29t-88 -26q-79 -21 -93 -28q-23 -11 -80 -21q-106 -26 -35 -95q32 -33 43 -60q9 -28 -0.5 -67.5t-24.5 -39.5q-16 0 -41 22t-47 55t-29 59q-15 56 -28 74q-11 10 -59.5 6.5t-66.5 -17.5q-14 -11 -70 -20q-42 -7 -48.5 -14t1.5 -38 q9 -41 15 -51t29 -10q33 0 43 -21t-10 -51q-21 -31 -64 -35.5t-52 24.5q-6 12 -35.5 69t-32.5 71q-15 44 -146 -2q-78 -28 -111 -35q-41 -11 -62 -30q-15 -14 -20.5 -13t-11.5 15q-7 21 24 55t59 34q18 0 69 26q49 26 107 35q53 7 68.5 35t5.5 93l-12 58l-111 -5 q-109 -2 -171 -25q-44 -14 -56 -13t-25 17q-16 24 -17 33zM487 735q0 -40 23 -73q18 -25 34.5 -27.5t76.5 9.5q86 14 121 26q28 11 32.5 23.5t3.5 57.5q-4 45 -10.5 53.5t-41.5 9.5q-46 2 -142 -16q-72 -16 -84.5 -24.5t-12.5 -38.5zM1548 822q0 9 12 11q18 0 20.5 -5.5 t-11.5 -14.5q-13 -7 -21 9z" />
<glyph unicode="$" horiz-adv-x="876" d="M18 1001l49 65q24 29 70 73.5t87.5 76t51.5 31.5q15 0 33.5 32.5t24.5 67.5q5 35 22 85q10 26 20.5 34t33.5 8q38 0 44.5 -14.5t-16.5 -52.5q-26 -41 -19 -52t47 1q106 30 139 -21q21 -34 16 -58q-4 -24 -36 -27.5t-54 18.5q-18 14 -28.5 14t-41.5 -18q-43 -24 -53 -70 q-4 -16 -3 -59.5t3.5 -89.5t8 -84t11.5 -41q7 -9 162 -32q80 -12 163.5 -52.5t99.5 -75.5q13 -28 6 -69q-8 -26 -102 -122t-113 -96q-13 0 -56 -40q-32 -28 -35.5 -40.5t9.5 -49.5q36 -114 80 -149q22 -18 21 -48q0 -32 17 -46q18 -13 44 -68q15 -32 16 -47t-8 -24 t-20.5 -3.5t-32.5 31.5q-37 43 -62 43q-22 0 -16 19q7 15 -19 56q-20 28 -31 49t-27 51.5t-32 58.5q-24 45 -35.5 55.5t-39.5 6.5q-37 -1 -95 -27q-9 -4 -27 -14q-92 -42 -111.5 -45t-39.5 25l-7 7q-33 39 -33 69q0 16 7 20t37 -2q40 -5 108 8.5t118 40.5q37 18 42.5 28 t0.5 49q-7 44 -41 157q-31 101 -26 110q7 13 -7 44q-4 11 -8.5 17.5t-11 11.5t-16.5 5.5t-25 0.5q-62 0 -178 57q-37 18 -60 65zM129 1013q0 -16 24 -37q23 -20 88 -41t78 -13q9 5 9.5 73.5t-8.5 123.5q-7 47 -27 47q-18 0 -91 -68t-73 -85zM445 822q-9 -13 10 -136 q13 -74 23.5 -106.5t28.5 -48.5l33 -33l39 33q42 35 57 35q13 0 67.5 68t54.5 85q0 62 -174 88q-74 9 -102 21q-30 9 -37 -6z" />
<glyph unicode="%" horiz-adv-x="1328" d="M19.5 1015q-6.5 67 19.5 123q11 26 45 67.5t67 75t44 33.5q15 0 43 28q28 26 83 35t75 -7q19 -16 63 11q61 35 144 25.5t132 -55.5q57 -55 2 -136t-239 -211q-187 -130 -322 -130q-37 0 -55.5 2.5t-31.5 10t-30 26.5q-33 35 -39.5 102zM50 273.5q1 10.5 24 48.5 q37 53 56 78q17 14 132 151q35 40 72 81t88 92.5t72.5 72.5t89.5 87t72 69q83 81 209.5 189.5t161.5 129.5q59 35 58 -4q0 -21 -82 -88q-255 -212 -567.5 -536.5t-312.5 -377.5q0 -17 -16 -32q-18 -14 -42 11q-16 18 -15 28.5zM98 1050q0 -63 27.5 -78t115.5 -4 q153 22 249 105q23 21 98 66q191 120 81 189q-43 26 -64 25q-72 -7 -117 -45t-36 -86q9 -40 -9 -40q-15 0 -49 -9q-30 -9 -29 12q0 23 -24 32q-22 7 -44 27q-55 46 -146 -68q-22 -29 -33 -48.5t-15.5 -37t-4.5 -40.5zM587 503q-23 79 16 149q21 41 100 108.5t123 83.5 q35 13 76.5 14.5t57.5 -8.5q16 -11 30 -41.5t14 -56.5q0 -20 -3 -20q-9 3 -43 35q-33 33 -46 36.5t-53 -10.5q-37 -11 -81 -48.5t-76.5 -82.5t-38.5 -78q-9 -59 15 -90t91 -46q44 -11 75.5 -8t101.5 21q24 7 56 15.5t54 14t29 7.5q28 7 54.5 22t50 36t39.5 45q21 32 23 45.5 t-10 44.5q-13 26 -24 40.5t-28 25t-45 15.5q-72 18 -72 56q0 35 79 4q70 -28 120 -78q29 -31 35.5 -48.5t2.5 -61.5q-5 -39 -15.5 -62t-37.5 -51q-42 -44 -55 -44q-11 0 -48 -26q-16 -11 -36.5 -20.5t-38 -15t-38.5 -15t-37 -19.5q-38 -30 -156 -31t-169 25q-69 39 -92 118z " />
<glyph unicode="&#x26;" horiz-adv-x="1057" d="M18 487v48l105 -50q194 -92 281 -75q16 3 41 12t50 21t48 24t36.5 22.5t13.5 15.5q0 14 -73.5 94.5t-73.5 91.5t-42 63q-37 44 -84 134q-29 55 -44.5 71.5t-46.5 25.5q-48 12 -81 -12q-36 -24 -36 -39q0 -18 -47 -88l-47 -72v63q0 41 11 64.5t56 76.5q68 81 99 82 q37 0 47 22t-1 77q-9 57 3 77.5t97 94.5q80 69 134 77q52 10 114 6t97 -17q33 -15 71 -57q26 -33 30.5 -53.5t-0.5 -90.5q-7 -107 -35.5 -152t-108.5 -76q-79 -30 -143 -39q-60 -9 -56 -22q0 -72 133 -207q113 -114 136 -81q5 9 7 28q6 32 17 46t22 67q9 54 30.5 85t47.5 25 q24 -2 32.5 -38.5t-10.5 -55.5q-15 -15 -15 -50q0 -22 -20 -59t-20 -59q0 -29 -15 -55q-11 -17 -9.5 -27t18.5 -28q24 -26 89.5 -60t80.5 -28q22 7 56 -14.5t28 -38.5q-7 -24 -7 -33q0 -21 -39.5 -27.5t-71.5 9.5q-40 21 -65.5 20.5t-59 32.5t-50.5 33q-13 0 -26 19.5 t-33 8.5q-7 -3 -44 -15.5t-68.5 -25t-38.5 -23.5q-14 -17 -49 -17t-76 -15q-44 -16 -107 -5t-107 42q-50 31 -62 31q-18 0 -67 25q-33 14 -42.5 26t-9.5 44zM320 1184q-7 -48 11.5 -98t50.5 -66q22 -13 66 -10.5t90 13.5t88.5 30.5t59.5 39.5q18 20 18 109q2 61 -3.5 79.5 t-30.5 34.5q-38 30 -96 31.5t-110.5 -18.5t-94 -60t-49.5 -85z" />
<glyph unicode="(" horiz-adv-x="1057" d="M18 514q-5 18 34.5 173t63.5 212q32 67 151.5 186.5t251.5 220.5t195 117q46 11 59.5 9t33.5 -16q17 -11 18 -18.5t-11 -20.5q-14 -21 -58 -31t-89 -34q-44 -24 -57 -23q-11 0 -132.5 -104.5t-187.5 -171.5q-111 -110 -163.5 -252t-41.5 -298q5 -87 33 -165t63 -106 q53 -46 97 -61t109 -9q83 8 88 26q6 16 45 9q39 -8 78 20q44 29 54 29q6 0 52.5 19.5t91.5 39.5t52 20q12 0 66 28q32 15 61 21.5t47.5 3t18.5 -17.5t-32.5 -32.5t-155.5 -71.5q-173 -76 -183 -102q-7 -14 -29 -14t-45 -21q-28 -21 -58 -20q-28 0 -37 -20q-7 -21 -100 -15 q-110 8 -158.5 26t-93.5 73q-112 133 -117 283q-2 86 -14 108z" />
<glyph unicode=")" horiz-adv-x="755" d="M18 100q0 21 76 86q31 26 56.5 50t49 47t42 43t46 50t51.5 53q50 50 109.5 126.5t91.5 111.5q28 30 52.5 72t42 84t19.5 69q2 46 -10 84q-13 48 -111 133t-201 137q-92 47 -111.5 63t-10.5 38q7 21 20 21q26 0 89.5 -27t104.5 -52q57 -41 68 -42q11 0 92 -74 q150 -129 155 -263t-129 -287q-75 -90 -84 -105q-26 -39 -112 -133.5t-150 -157.5q-85 -78 -85 -95q0 -16 -31.5 -43.5t-59.5 -37.5q-28 -7 -49 7t-21 42z" />
<glyph unicode="*" horiz-adv-x="786" d="M19.5 822q4.5 24 19.5 24q7 0 20 26.5t24 23.5q12 -4 97.5 58.5t85.5 77.5q0 11 -69 80q-49 51 -90.5 105.5t-41.5 66.5t14 26q18 18 48.5 2t92.5 -79q77 -79 88 -79t11 86q0 39 1.5 56.5t6.5 24.5t16 7q24 0 37.5 -9.5t21.5 -33.5t11 -66q7 -85 27 -89q21 -2 107 55 q81 53 106.5 62.5t48.5 -7.5q39 -30 -29 -74l-61 -35q-86 -46 -116 -65q-32 -21 -30 -54q2 -18 17 -18t45.5 -31.5t30.5 -48.5q0 -12 92 -59q171 -86 93 -114l-21 -6q-37 -7 -94 12.5t-94 50.5q-63 57 -82.5 72t-28.5 9q-13 -7 -4 -51q8 -44 -7 -54q-11 -7 5 -44 q57 -118 25 -153q-25 -28 -44 -20.5t-58 60.5q-44 65 -40 104q12 132 25 184q11 35 -16 31q-62 -7 -185 -127l-16 -18q-32 -33 -51 -36t-32 23q-11 20 -6.5 44z" />
<glyph unicode="+" horiz-adv-x="1129" d="M18 814q0 17 48 26.5t98 1.5q68 -9 81 15t6 138q-7 96 -5 114.5t23 18.5q30 0 42.5 -30.5t20.5 -116.5q7 -95 14 -109q4 -7 104.5 -0.5t196.5 20.5q35 5 62.5 9t57 3.5t46.5 -0.5t56.5 -4t59.5 -4q79 -6 96 -20q21 -16 39 -8q12 6 30.5 -14.5t18.5 -39.5q0 -5 -91 0 q-92 8 -102 -7q-7 -14 -32 0q-22 11 -174 5.5t-202 -19.5q-42 -13 -86 -14q-41 0 -57 -16t-15.5 -73.5t20.5 -123.5q23 -74 20 -131q-3 -60 14 -78q12 -14 6 -49t-23 -35q-13 0 -57 35q-41 35 -42 83q-2 33 -7 84t-10.5 105t-7.5 87q-7 75 -12 85q-9 13 -88 6 q-61 -6 -105 10.5t-44 45.5z" />
<glyph unicode="," horiz-adv-x="318" d="M19 -26.5q-3 21.5 7.5 46t28.5 33.5q51 24 108 93.5t57 106.5q0 33 -27 53t-53 7q-28 -14 -66.5 5.5t-47.5 52.5q-7 31 5.5 65.5t36.5 48.5q36 21 65 7.5t87 -75.5q54 -60 70 -92.5t12 -83.5q-5 -42 -88.5 -141.5t-125.5 -112.5q-30 -9 -29 -24q0 -11 -22 -11 q-15 0 -18 21.5z" />
<glyph unicode="-" d="M29.5 650q-20.5 17 2.5 47q18 29 40 29q21 0 109 -44q48 -22 81 -22q37 0 81 -15q37 -12 227 0.5t209 29.5q15 13 30 7q13 -9 50 11q12 5 33 10.5t43.5 8t43 2.5t33.5 -3.5t13 -10.5q0 -11 -46.5 -32t-69.5 -21q-28 0 -79 -26q-39 -18 -104.5 -32t-147.5 -21t-167 -7 q-103 0 -147 6t-116 32q-98 34 -118.5 51z" />
<glyph unicode="." horiz-adv-x="292" d="M20.5 412q9.5 36 56.5 75q41 33 78 33t84 -33q41 -28 37.5 -59.5t-49.5 -75.5q-33 -33 -54.5 -43t-52.5 -10q-34 0 -49.5 7t-31.5 32q-28 38 -18.5 74z" />
<glyph unicode="/" horiz-adv-x="709" d="M37 264q-44 14 16 107q26 37 65.5 112.5t64.5 109.5q35 46 41 83.5t24 51.5t19 26q0 15 74 116q76 111 152.5 238t97.5 181q25 59 47 77q23 15 34.5 14t18.5 -20q6 -11 -18 -66.5t-68 -135.5t-98 -161q-79 -127 -79 -135q0 -7 -46 -74t-46 -82t-21 -33q-23 -18 -105 -179 q-69 -127 -110 -183t-63 -47z" />
<glyph unicode="0" horiz-adv-x="1231" d="M22 677q8 51 64 165.5t108 179.5l38 47l-20 153q-17 155 -11 162q5 11 31 9t34 -12q10 -21 12 -87q4 -70 21 -100q11 -20 20 -16t57 46q65 61 150 99q82 41 121 35.5t67 -60.5q31 -57 92 -118q47 -48 70 -88t47 -114q17 -47 15 -114.5t-18 -96.5q-16 -30 -32 -61 q-7 -15 -61.5 -73t-113.5 -116t-79 -71l-31 -20l70 -92q78 -98 161.5 -180t122.5 -95q98 -38 147 -61q37 -20 62 -20q26 0 45 -26q8 -12 0 -19q-10 -5 -41.5 -10.5t-56 -5.5t-28.5 4q0 12 -62 29q-68 21 -110 43q-52 28 -164.5 134.5t-158.5 174.5q-23 32 -32 45.5t-21.5 20 t-18.5 5t-27 -8.5t-39 -12q-6 0 -29 -8t-31.5 -10t-29.5 -8t-36 -6.5t-35 -1.5t-38 2q-42 6 -66.5 20t-68.5 58q-116 114 -96 279zM90 689q-9 -40 14 -113t53 -101q75 -70 200 -42q25 5 39 8.5t26.5 9.5t18 10.5t7.5 17.5t-0.5 23t-12 33.5t-19.5 44.5t-29 58 q-77 162 -88 199q-15 48 -30 57q-11 10 -11 34.5t-11 24.5q-27 0 -82.5 -95t-74.5 -169zM329.5 1020.5q2.5 -23.5 20.5 -82.5q33 -102 70 -178q39 -83 39 -93q0 -11 53 -83l54 -72l57 41q66 47 142 127q55 55 71.5 81t23.5 71q11 79 -11.5 146t-88.5 144q-76 85 -85.5 85 t-42.5 -25q-46 -37 -66.5 -24t6.5 62q22 43 3 50q-9 2 -24 -16q-16 -18 -34.5 -18.5t-57.5 -39.5t-61 -46q-13 -7 -24 -23.5t-21 -38t-17 -30.5q-9 -14 -6.5 -37.5zM565.5 1039.5q-1.5 31.5 16.5 38.5q26 11 40 5.5t30 -29.5q23 -32 6 -59q-13 -26 -28.5 -26.5t-39.5 21.5 q-23 18 -24.5 49.5z" />
<glyph unicode="1" horiz-adv-x="1011" d="M18 500q0 26 15 29q18 6 185 -7q105 -7 120 2q14 9 42 9q16 0 20 8t1 38q-5 46 -19 57q-17 9 -13 304l2 295l-43 -9q-27 -6 -54 -20.5t-44.5 -32t-17.5 -30.5q0 -44 -72 -86q-70 -43 -94 -17q-4 5 -6 10q-5 30 5 60.5t27 30.5q18 0 70 61q41 51 117.5 95.5t109.5 35.5 q26 -8 35 13q9 22 22.5 20t27.5 -26q14 -30 5 -197q-30 -481 46 -555l35 -34l174 34q153 28 213 44q37 14 59 -6q11 -12 9.5 -17.5t-24.5 -15.5q-26 -11 -111 -27q-51 -7 -123 -36t-125 -36q-72 -9 -86 -21q-32 -24 -287 -35q-130 -5 -175.5 7t-45.5 55z" />
<glyph unicode="2" horiz-adv-x="1002" d="M18 410l49 42q38 35 132 102q448 334 487 541q9 43 -26 93t-83 68q-48 16 -124.5 8.5t-116.5 -31.5q-39 -26 -63 -26q-9 0 -19.5 -9t-14.5 -22q-12 -31 -51 -29q-26 0 -31.5 8t-5.5 37q0 34 14 44.5t86 40.5q104 41 160 51q65 10 91.5 10t85.5 -10q70 -15 101 -46 q34 -29 58.5 -83t24.5 -98q0 -55 -45 -138.5t-110 -149.5q-98 -96 -270.5 -244.5t-189.5 -148.5q-13 0 -13 -20q0 -43 276 -52q164 -5 181 -18q16 -14 138 -15q184 0 215.5 -3.5t31.5 -26.5q0 -29 -43.5 -42.5t-140.5 -17.5q-114 -5 -125 -15q-11 -6 -30 6q-24 22 -327 37 q-123 7 -144 16q-64 32 -88.5 50.5t-43.5 47.5z" />
<glyph unicode="3" horiz-adv-x="911" d="M28 1333q16 21 35.5 19.5t93.5 -24.5q90 -32 193 -54q105 -23 148 -37q37 -13 44 -15q20 -2 58 -28t51.5 -47t13.5 -33.5t-16 -46.5q-21 -49 -74 -70q-14 -7 -25.5 -14.5t-17.5 -15t-5 -10.5q4 -21 83 -48q94 -33 146.5 -65.5t93.5 -78.5q44 -51 46.5 -91t-34.5 -94 q-63 -86 -205.5 -124.5t-273.5 -3.5q-73 20 -177 31q-76 6 -109.5 26t-22.5 52q5 18 68.5 14.5t119 -13t81.5 -17.5q57 -14 151 -19.5t105 5.5q9 9 35 9q25 0 67.5 21t72.5 49q35 34 30 65q-2 11 -13.5 11t-32.5 40q-23 41 -42 41q-25 0 -51 24q-65 57 -302 77 q-100 8 -129 37q-46 41 -25 72t97 38q63 4 76 19q14 13 42 13t72 28l46 29l-39 30q-39 33 -67 32q-24 0 -60 21q-30 18 -107 20q-75 0 -85 10q-8 9 -77 30q-120 36 -79 86z" />
<glyph unicode="4" horiz-adv-x="972" d="M21 973q-6 112 3 120q9 6 35 81q13 46 23 59.5t29 10.5q28 -4 32.5 -40t-20.5 -73q-24 -33 -25 -137q0 -69 6.5 -94.5t34.5 -64.5q33 -49 67.5 -66.5t62.5 -1.5q24 14 35 7q15 -7 153 35l142 42v115q0 114 -11 129q-9 11 -6.5 27.5t15.5 30t26 13.5q31 0 42.5 -24.5 t13.5 -98.5q1 -44 5.5 -80t13 -56.5t16.5 -20.5q16 0 51 6.5t66 11.5t62.5 7t49 -8.5t14.5 -32.5q-4 -29 -41 -46t-98 -17q-51 0 -74 -9t-32.5 -33t-9.5 -74q0 -77 15 -107q13 -22 22 -112q7 -87 33 -105q4 -3 58 -45l29 -21l-29 -30q-18 -18 -30.5 -21t-41.5 8 q-41 13 -67 36t-26 45q0 18 -11 35q-7 8 -16.5 56.5t-16.5 113t-9 116.5q-2 88 -11 98q-3 3 -12.5 2.5t-22.5 -4.5t-28.5 -11.5t-32.5 -16.5q-33 -18 -128 -43t-139 -25q-203 0 -217 313z" />
<glyph unicode="5" horiz-adv-x="1488" d="M18 1222q4 24 16 28t68 0q49 -2 70.5 2.5t41.5 22.5q21 23 29 24t29 -18.5t70.5 -27t68.5 7.5q6 5 86 12.5t162.5 13t92.5 7.5q26 7 180.5 21t284.5 21q162 8 195 18q61 25 60 -5q0 -16 -12.5 -25.5t-45 -16t-102.5 -15.5q-86 -10 -211.5 -30t-222.5 -33 q-333 -49 -401 -56q-70 -4 -146 -17t-86 -25q-9 -11 -39 -88q-44 -114 -25 -147q5 -10 13 -6t99.5 32t107.5 33q39 14 119.5 10.5t135.5 -23.5q67 -24 133 -83t76 -105q18 -86 -94.5 -150t-302.5 -71q-77 -4 -97.5 1.5t-60.5 40.5q-69 61 -48 87q16 20 79 -10 q39 -18 123.5 -22t145.5 12q41 9 76 26.5t57 38.5t22 39q0 65 -71 102t-177 33.5t-202 -49.5q-68 -34 -125.5 -44t-78.5 5q-23 13 -18 84t34 153q28 78 22.5 101t-54.5 23q-37 0 -59 19t-18 49z" />
<glyph unicode="6" horiz-adv-x="802" d="M37 754q22 39 14 39q-1 2 -0.5 7.5t12 25.5t29 52.5t47.5 89.5q35 62 98.5 130t107.5 93q44 22 79 53q39 31 107 65q63 27 94 29t61 -22q20 -15 23 -24.5t-9 -21.5q-16 -21 -40 -13q-74 18 -233.5 -91t-224.5 -226q-20 -37 -40 -59q-24 -33 -50.5 -104t-26.5 -107 q0 -73 36.5 -138.5t90.5 -85.5q25 -9 122 0t158 27q32 11 75 38t78 57.5t48 52.5q13 26 8.5 36t-43.5 34q-44 30 -70.5 33.5t-77.5 -12.5q-33 -11 -64 -31.5t-55 -45.5t-35 -51q-11 -30 -20.5 -36t-27.5 -1q-32 9 -34.5 18.5t10.5 59.5q16 55 39 77t106 56q118 51 214 31.5 t129 -98.5q21 -51 10.5 -84.5t-61.5 -84.5q-105 -107 -278 -157q-162 -45 -255 -9.5t-140 166.5q-55 144 -11 232z" />
<glyph unicode="7" horiz-adv-x="737" d="M18 1192q0 15 45.5 33.5t102.5 28.5q59 9 158 40q100 34 135 34q35 3 67 18q18 10 68.5 13t94.5 -3q9 0 27 -37q10 -37 -7 -56q-12 -13 -55.5 -95.5t-55.5 -94.5q-18 -18 -19 -35q0 -13 -20 -32q-15 -11 -89 -151q-70 -135 -94 -182.5t-45 -101t-23 -73t-6 -69.5 q-3 -59 -9 -92t-15 -48.5t-23 -15.5q-21 0 -48.5 50.5t-27.5 86.5q0 44 29.5 118.5t76.5 150.5q53 84 54 100q0 18 35 67q41 50 59 88q135 251 155 277q24 27 13 45t-45 10q-38 -7 -64 -19q-35 -16 -306 -74q-95 -21 -116 -32q-24 -12 -38 11q-13 30 -14 40z" />
<glyph unicode="8" horiz-adv-x="841" d="M18 1048q0 25 20.5 52.5t40.5 27.5q15 0 41 28q61 68 297 126q127 34 134 39q22 21 101 -12q48 -21 48 -52q0 -38 -25 -55q-13 -8 -21 3q-9 15 -55 28q-26 7 -62 1.5t-109 -27.5q-242 -74 -303 -138q-18 -22 -5 -35q10 -11 96 -15t197 1q55 2 77 11t66 49q111 100 153 56 q21 -18 12 -40.5t-39 -33.5q-33 -13 -48 -33q-10 -15 -8 -23.5t21 -24.5q32 -24 48 -28q12 0 47.5 -37.5t61.5 -82.5q28 -45 16 -94q-13 -50 -25 -79.5t-29.5 -49.5t-46.5 -42q-59 -44 -59 -56q0 -9 -50 -40q-49 -30 -65 -46q-20 -25 -148 -83t-159 -58q-26 0 -40 9.5 t-31 35.5q-31 50 -12 126.5t81 162.5q63 83 63 99t60 108q70 106 45 116q-12 6 -48 -4q-50 -11 -140 -11q-197 0 -198 121zM239 394q21 -24 83 4q52 24 93.5 49t90 61.5t126.5 101.5q56 48 75 72t27 55q7 41 -0.5 69.5t-29.5 48.5t-64 41q-70 29 -105 30t-50 -29 q-18 -35 -56 -77q-37 -48 -37 -60q0 -13 -64 -115q-130 -200 -89 -251z" />
<glyph unicode="9" horiz-adv-x="871" d="M19 977q2 15 23 45q32 42 73.5 79.5t55.5 39.5q16 0 41 20q136 111 251 142q42 11 93 3t72 -29q28 -26 49 -39q18 -10 19 -15.5t-16 -22.5q-18 -21 -32 -17t-87 46q-34 17 -84.5 7t-91.5 -42q-35 -28 -53 -28t-49.5 -32.5t-53.5 -32.5q-15 0 -44.5 -22t-54.5 -53t-30 -51 q-7 -35 14 -61q16 -18 73.5 -30t74.5 1q11 9 91 39.5t82 30.5q28 13 63 18q47 7 129 66.5t82 84.5q0 23 15 74q8 30 17.5 39.5t27.5 9.5q72 0 82 -90q6 -37 1.5 -48.5t-32.5 -26.5q-41 -21 -55 -78q-14 -59 -14 -77v-26.5v-58.5v-68q-4 -137 12 -175q15 -42 6 -99 q-6 -28 -7 -45t0 -25t4 -26.5t4 -38.5q4 -31 -6 -52t-25.5 -25t-32.5 10.5t-24 46.5q-9 35 -33 61q-23 26 -11 42q11 21 13 64q1 51 9 102q10 83 16 225t-1 146q-14 5 -105 -39q-92 -46 -111 -47q-18 0 -98 -39q-109 -56 -207.5 -37t-125.5 102q-11 37 -9 52z" />
<glyph unicode=":" horiz-adv-x="285" d="M19.5 405q-3.5 12 4.5 35q13 39 39 37q27 -4 48 37q22 39 37 39q14 0 53.5 -52.5t39.5 -74.5q0 -28 -39.5 -57.5t-76.5 -29.5q-40 4 -75 32q-27 22 -30.5 34zM123 961q1 58 16 89q10 23 19 27.5t30 0.5q21 -5 40 -16.5t30 -25.5t11 -28q0 -18 -26 -94 q-14 -46 -25.5 -60.5t-33.5 -16.5q-20 -4 -28 0.5t-8 21.5q0 27 -13 35q-13 9 -12 67z" />
<glyph unicode=";" horiz-adv-x="334" d="M24 473q13 21 54.5 1t98.5 -73q21 -20 27 -26t18 -17.5t14.5 -15.5t9.5 -11t10.5 -12.5t8 -12.5t12.5 -20l16 -26q53 -77 -6 -170q-21 -33 -39 -16q-18 14 -40 -4q-32 -26 -118 -7q-63 14 -57 39q4 12 78 38q70 25 91 46q13 15 12.5 25t-17.5 44q-28 49 -95 102 q-100 78 -78 116zM70 1004v35.5t2 25.5t3.5 19.5t7 11t13.5 6.5t19.5 -1.5t25.5 -5.5t35 -11q33 -9 43.5 -20.5t14.5 -36.5q4 -26 -11 -63t-39 -63.5t-44 -26.5q-31 0 -50.5 35.5t-19.5 94.5z" />
<glyph unicode="&#x3c;" horiz-adv-x="1076" d="M18 795q0 11 16.5 29t38 34t32.5 16q7 0 46 25q37 26 76 35q26 6 124.5 51t211 99.5t117.5 58.5q48 23 59.5 23t27.5 -19q24 -30 1.5 -51t-112.5 -51q-103 -33 -291 -123t-196 -111q-7 -18 -3 -24q7 -6 102 -34.5t199.5 -55.5t131.5 -30q62 -7 110 -29q32 -14 107 -31 q65 -11 126 -45q55 -27 90 -40q28 -5 28 -27t-26 -36q-55 -30 -218 42q-90 41 -132 41q-33 0 -66.5 19t-51.5 23q-190 42 -300 78q-100 31 -131 36q-42 9 -79.5 40t-37.5 57z" />
<glyph unicode="=" horiz-adv-x="1335" d="M18 1006q0 32 21 41q35 18 242.5 49.5t444.5 55.5q115 11 271.5 7.5t200.5 -18.5q35 -12 42 -42t-21 -54q-13 -11 -20.5 -8t-22.5 21q-31 39 -178 36t-519 -49q-87 -11 -162 -18q-48 -4 -120 -20.5t-99 -30.5q-33 -14 -56.5 -6t-23.5 36zM44 774q0 14 12 23t38 14t31 7 q100 42 130 42q26 0 58 34q35 33 54 20q18 -16 115 0q112 17 215 24q119 13 125 20q10 8 29 4q21 -7 135 -22q115 -15 138 -29q28 -13 89 -4q39 6 55 2t32 -21q28 -31 16.5 -48.5t-52.5 -6.5q-56 17 -246 30t-299 7q-90 -5 -200.5 -21.5t-204 -40t-135.5 -43.5 q-24 -11 -81 -14q-33 -4 -43.5 0.5t-10.5 22.5z" />
<glyph unicode="&#x3e;" horiz-adv-x="1171" d="M20 1165.5q-1 10.5 10 26.5q16 27 28 27.5t44 -23.5q22 -18 71.5 -38t96.5 -32.5t60 -6.5q21 11 37 -4q15 -13 123 -20t140 -20q30 -11 139 -35q251 -45 328 -78q21 -9 31.5 -16.5t16 -18.5t9.5 -30q7 -44 -5.5 -55.5t-142.5 -13.5q-98 -4 -167.5 -17t-153.5 -45 t-230 -104q-167 -80 -237 -134.5t-70 -103.5q0 -28 -6.5 -38t-30.5 -15q-39 -9 -54 -23q-18 -14 -24 0l-11 52q-5 33 -0.5 52.5t26.5 54.5q22 33 50.5 54t76.5 45t72 41q186 107 415 199q18 7 133 37q105 24 110 39q2 9 -18 19t-51.5 18.5t-57.5 8.5q-41 0 -80 15 q-63 22 -383 46q-81 5 -171.5 39t-110.5 66q-12 21 -13 31.5z" />
<glyph unicode="?" horiz-adv-x="762" d="M19 1336.5q6 29.5 38 35.5q38 7 50.5 7t17.5 -11t151 -4q210 13 289 -3.5t133 -86.5q76 -96 30 -185q-21 -39 -115.5 -126t-166.5 -135q-47 -32 -107 -74q-29 -24 -86 -48q-61 -25 -72 -36q-13 -8 48 -65q63 -53 63 -74t21 -52q21 -33 17 -69q-2 -21 -10.5 -29t-27.5 -8 q-9 0 -17 2.5t-15 9.5t-14.5 18.5t-16.5 29.5q-30 59 -71.5 109.5t-59.5 50.5q-16 0 -31.5 25.5t-15.5 51.5q0 25 98 69q99 46 117 63q12 11 58 37q44 24 163.5 129t146.5 145q30 46 21.5 79.5t-56.5 68.5q-31 22 -102 32t-91 -4q-13 -11 -177 -19q-106 -6 -139 -3t-51 17 q-26 23 -20 52.5zM202 114q-12 52 21 92q15 18 24 21t28.5 -9t28.5 -10.5t22 13.5q16 17 25.5 15t35.5 -20q41 -30 45 -55.5t-22 -60.5q-28 -35 -72.5 -51t-79.5 -3q-44 16 -56 68z" />
<glyph unicode="@" horiz-adv-x="1498" d="M21 724q-13 62 55 146.5t184 152.5q94 53 190.5 83.5t270.5 58.5q295 47 426 17q84 -21 135 -88t27 -126q-17 -43 -45 -57q-16 -7 -73 -49t-116.5 -83.5t-73.5 -50.5q-187 -103 -187 -129q0 -18 -36 -19q-37 2 -89 -10q-51 -13 -96 5q-33 16 -49.5 13.5t-75.5 -34.5 q-81 -44 -81 -34q0 7 -26 -8q-41 -22 -7 -33q14 -6 40 -6q44 0 56 -14q11 -23 202.5 -9t311.5 44q132 33 209 46q47 7 85 21t68 21q26 6 102 23q53 11 54 -6q0 -20 -31 -20q-35 0 -41 -13q-9 -12 -35 -13q-24 0 -68 -20q-33 -18 -194.5 -65.5t-187.5 -47.5q-21 0 -81 -20 q-70 -26 -131 -32.5t-197 -6.5q-107 2 -145.5 7.5t-62.5 20.5q-35 26 -74 44q-46 22 -91 70t-78 107.5t-44 113.5zM101.5 779.5q-16.5 -47.5 12.5 -102.5q25 -44 35 -45q13 0 4 15q-11 18 48 85.5t116 100.5q88 53 98 61q18 12 97 38q53 15 70 16.5t41 -14.5 q37 -26 29.5 -39.5t-54.5 -13.5q-60 0 -91 -14q-4 -2 -41 -18t-64.5 -31.5t-27.5 -24.5q0 -11 -46 -33q-40 -21 -71.5 -55.5t-26.5 -55.5q4 -23 27 -33.5t45 -1.5q30 11 81 12q57 4 113 41q44 31 60 50.5t32 65.5q7 23 18 30t34 7q24 0 39.5 -11t21.5 -33t5 -53 q-4 -28 1 -35.5t21 -3.5q28 5 61 28q21 12 78.5 39t82.5 44q44 29 91 56q63 34 125 93q43 37 52.5 53t3.5 41q-9 37 -38 49q-127 51 -189 39q-33 -9 -127 -11q-70 0 -162 -13t-131 -27q-18 -6 -97.5 -29.5t-112.5 -39.5q-55 -26 -72 -25q-14 0 -101 -82 q-74 -72 -90.5 -119.5z" />
<glyph unicode="A" horiz-adv-x="847" d="M18 643q0 16 15 55q18 57 26 102q8 41 18 53q13 23 67 153q55 141 119.5 270t95.5 161q21 23 39.5 28.5t65.5 5.5l72 -4l32 -99q16 -50 25.5 -84t12 -50.5t11.5 -67.5t15 -84q3 -24 8 -51.5t8 -41.5t3 -16q0 -4 29 -11q23 -5 22.5 -9.5t-16.5 -23.5q-16 -17 -18 -39 q-1 -8 -1 -18q0 -23 3 -61q4 -53 26.5 -146t26.5 -141q5 -53 22.5 -96t33.5 -43q25 -1 41 -33q12 -23 13 -46q0 -10 -3 -21q-9 -42 -51 -58q-27 -10 -38 -10h-2q-11 1 -32 19q-29 26 -29 46l1 1q0 20 -23 60q-21 39 -28 142q-5 74 -8.5 111.5t-7.5 49.5t-10 44.5t-14 83.5 q-4 35 -8.5 55.5t-9.5 29t-14 6.5q-11 0 -156 -29t-159 -29q-24 0 -42 -14t-31 -40.5t-19 -61.5q-10 -77 -47 -103q-13 -9 -26 -9q-23 0 -44 29q-14 19 -14 35zM232 936v-12q0 -21 6 -25q5 -3 24 -3q12 0 30 1q75 4 158 19.5t101 29.5q15 11 15 30t-13 84q-25 118 -29 160 q-9 62 -24 78q-16 20 -21 66q-9 52 -22 54q-21 0 -84 -144q0 -2 -41.5 -88.5t-68.5 -152t-31 -97.5z" />
<glyph unicode="B" horiz-adv-x="1004" d="M18 412q2 36 28 65q12 13 16.5 74t4.5 253v46q0 246 -10 361q-5 53 -5 76v13q2 16 24 28q26 14 112 23q83 8 88 13q4 4 48 4q54 0 168 -6q206 -11 245 -24q33 -10 42.5 -19.5t7.5 -29.5q-4 -30 -51.5 -82.5t-121.5 -107.5q-62 -45 -62 -62q0 -3 2 -5q14 -14 53 -2 q30 11 74 10q57 0 137 -18q140 -32 165 -78q6 -10 5 -23q0 -39 -48 -99q-66 -82 -166 -136q-57 -30 -57 -39q0 -3 -11 -12t-28.5 -17t-34.5 -16.5t-30.5 -15.5t-14.5 -7q-32 -18 -117 -57t-131 -56q-76 -31 -118 -62q-44 -32 -104 -44q-25 -5 -45 -5q-27 0 -44 10 q-21 10 -21 40v7zM142 1057q0 -92 4 -185.5t12 -167.5t18 -125.5t19 -66.5l25 -29l137 68q146 70 187 98q42 30 98 57q49 26 114 81q55 49 99 80q25 13 29 21q1 2 1 4q0 7 -9 17q-36 34 -145 34q-43 0 -97 -5q-45 -4 -80 -4q-44 0 -74 6q-54 11 -86 48q-11 16 -2 30t63 62 q45 37 72 61t49.5 45t32.5 32t18.5 20t6.5 13.5t-4 7.5q-8 11 -146 17q-75 3 -130 3q-46 0 -78 -2q-49 -5 -90 -23l-44 -21v-176z" />
<glyph unicode="C" horiz-adv-x="1584" d="M33 660q-14 49 -14 96q0 165 167 308q98 81 115 88q18 5 66 39q28 20 89.5 50.5t130.5 61t120 48.5q46 16 96 16q7 -1 13 -1q58 -2 76 -24q19 -20 19 -32q0 -16 -35 -18l-37 4q-22 3 -41 3q-34 0 -61 -10q-11 -6 -63.5 -24.5t-93 -36t-53.5 -28.5q-22 -16 -54 -24 q-45 -10 -165 -107.5t-160 -157.5q-54 -76 -54 -146q0 -11 2 -21q10 -79 85 -130q33 -24 59 -30.5t90 -6.5q107 2 145.5 6.5t125.5 32.5q76 22 196.5 69t159.5 69q24 13 47 13t43 16q14 14 92 39.5t92 32.5q28 18 50 19q42 0 217 83q46 20 61 20q5 0 6 -2q5 -5 5 -8t-3 -5 q-7 -7 -110 -54.5t-111 -47.5q-13 0 -124 -54q-282 -133 -341 -159q-181 -85 -261 -115.5t-147 -39.5q-72 -10 -114 -35q-28 -15 -38 -17h-4q-8 0 -13 8q-11 18 -77 35q-61 17 -121 70.5t-73 106.5z" />
<glyph unicode="D" horiz-adv-x="884" d="M22 1399q5 7 13 7q16 0 46 -31q16 -21 26.5 -24.5t21.5 5.5q14 11 60 12q86 0 284 -40q52 -10 91 -21t72 -26t62.5 -34t57 -42t57.5 -57q35 -38 45 -59.5t10 -58.5q0 -44 -16.5 -101t-33.5 -69q-12 -5 -29 -40q-12 -24 -42 -53.5t-70.5 -57t-80.5 -47.5q-9 -4 -37 -22.5 t-54 -32.5t-42 -14q-28 0 -96 -32q-55 -28 -107 -49q-33 -12 -33 -49q0 -25 -31.5 -68t-47.5 -43q-9 0 -53 39q-26 24 -33 40.5t-5 50.5v6q0 54 -15 233q-12 143 -20 403q-4 134 -3 204q0 64 3 71zM105 1259q-1 -20 -1 -51q0 -72 5 -208q7 -192 18 -265q9 -65 22 -102 t29 -51q11 -9 26 -9q7 0 16 2q26 7 87.5 38t107.5 57q46 30 208 121q31 18 80 76t67 101q10 25 10 47q0 17 -6 32q-11 26 -61.5 73.5t-92 70t-124.5 47.5t-142 30q-110 14 -138 14h-2q-26 0 -35 -10q-3 -9 -38.5 -5.5t-35.5 -7.5z" />
<glyph unicode="E" horiz-adv-x="1370" d="M18 699q0 17 34 44t80 50q18 9 27.5 15t20 20t14 27t8 46t6.5 67.5t8 98.5q5 146 18 171q11 23 -2.5 43t-41.5 20q-37 0 -33 28q1 34 45 52q10 3 19 5q39 8 84 8q32 0 68 -4q21 -4 59 -4q36 0 86 4q105 8 236.5 25t246.5 38q65 11 149 17q46 3 84 4q32 0 60 -2 q60 -4 60 -16q0 -26 -30 -37t-107 -14q-105 -7 -120 -21q-16 -12 -93 -22q-22 -2 -78 -8.5t-76 -7.5q-76 -10 -90 -18q-11 -10 -153 -19q-190 -11 -230.5 -21.5t-56.5 -45.5q-16 -40 -26 -196q-4 -68 -4 -108q0 -52 7 -57q4 -3 12 -3q19 0 60 14q26 7 111.5 35t171 55.5 t108.5 37.5q30 12 222 52q167 35 196 35q4 0 6 -1q10 -7 10 -26q0 -16 -42 -35.5t-112 -34.5q-55 -11 -128 -31.5t-127.5 -38.5t-61.5 -26q-15 -14 -43 -15q-14 0 -61 -12.5t-102.5 -32t-92.5 -36.5q-53 -25 -74 -25h-2q-28 0 -51 -38t-28 -92q-3 -26 -3 -53q0 -43 7 -90 q11 -77 33 -102q14 -16 32 -15t84 25q90 29 109 42q7 5 101 27.5t102 29.5q12 8 99 29t148 30q59 7 139 28q76 16 152 21q20 1 34 1q48 0 48 -11q0 -3 -10 -9q-18 -9 -52 -17q-70 -10 -79 -24q-9 -9 -45 -9q-31 0 -134 -31q-18 -8 -202.5 -66.5t-336.5 -110.5t-193 -74 q-53 -28 -80 -28q-4 0 -8 1q-28 5 -30 45q-3 39 -17 111q-6 38 -6 81q-1 22 1 44q4 68 22 92q10 14 2 43q-6 25 -38 27h-7q-28 0 -55 -16q-20 -11 -44 -6.5t-24 21.5z" />
<glyph unicode="F" horiz-adv-x="1214" d="M18 397.5q0 6.5 14 20.5q18 25 25 208q7 124 11 185t9.5 99t14.5 63q14 39 19 135q3 61 17 113.5t33.5 83t39.5 30.5q31 0 35 -30q3 -26 12 -37q10 -10 38 -12q5 0 11 -1q27 0 61 6q42 7 121 28q46 11 184.5 43t177.5 41q42 11 85 21.5t93 20.5t82 17q43 9 64 9 q6 -1 10 -1q19 -4 23 -26v-5q0 -21 -32 -33q-36 -14 -153 -34q-84 -14 -112 -33q-30 -18 -92 -27q-67 -8 -81 -19q-28 -25 -341 -81q-155 -30 -175 -51q-16 -11 -38 -133q-14 -80 -14 -113q0 -16 4 -20q7 -5 42 18q41 26 93 39q93 29 147 49q128 43 402 101q218 46 273 46 q14 0 17 -2q4 -3 4 -7q0 -13 -45 -34q-42 -21 -89 -28q-40 -7 -94 -21t-120 -34.5t-88 -25.5q-37 -11 -72 -26t-87 -26q-70 -14 -127 -40q-179 -78 -188 -95q-7 -12 -40 -12q-32 0 -39 -13q-7 -12 -9 -152v-48q0 -98 7 -119q4 -9 8.5 -14.5t7 -8t10 -1t11.5 2.5t14 5.5 t14 6.5q24 9 35 -20q11 -30 -1 -58t-55 -68q-23 -24 -35 -28q-4 -2 -9 -2q-9 0 -21 6q-22 17 -44 17q-16 0 -25 44q-11 49 -29 63q-14 11 -14 17.5z" />
<glyph unicode="G" horiz-adv-x="1099" d="M21 767q3 51 16 81t57 90q51 66 102 114.5t73 48.5q9 0 31 26.5t32 26.5q14 0 39 28q9 9 21 18t21 15.5t25.5 15.5t24 12.5t27.5 14t26 12.5q28 14 84 36.5t127 43.5q53 15 94 15q15 0 27 -2q51 -7 51 -51q0 -24 -18.5 -32t-73.5 -8q-73 0 -137.5 -21.5t-153.5 -72.5 q-113 -65 -122 -65t-51 -40q-41 -43 -74 -65t-103 -101l-71 -79q4 -86 10 -176l59 -29q26 -15 44.5 -19.5t45 -6t63.5 1.5q39 2 72 5.5t67 11t54.5 11t56.5 16.5t48.5 18.5t58 23l58.5 22.5q81 32 131 73.5t50 76.5q0 28 26.5 76t41.5 48q11 0 41 -13q20 -13 24 -62 q1 -8 1 -16q0 -36 -17 -53q-14 -14 -17 -121q-1 -21 -1 -39q0 -77 11 -111q15 -44 39 -74q22 -26 22 -42q0 -18 -30 -37q-22 -14 -33 -14l-1 1q-10 0 -37 15q-25 14 -35 30t-16 47q0 2 -21 125q0 2 -2 8q-9 53 -29 54h-1q-21 0 -125 -45q-9 -5 -15 -8q-92 -42 -167 -60 q-39 -9 -79.5 -24t-84.5 -22q-55 -9 -63 -22q-7 -9 -44 -6q-69 9 -110.5 21.5t-83.5 40.5q-55 36 -74 83q-14 34 -14 88q0 20 2 42z" />
<glyph unicode="H" horiz-adv-x="1136" d="M18 874q0 21 9.5 29t40.5 17q48 12 64 28q15 14 21 226q7 214 13 221q5 10 17 10q14 0 37 -15q14 -12 16 -44q1 -10 1 -32q0 -41 -3 -123q-1 -46 -1 -82q0 -93 9 -114.5t49 -21.5q15 0 35 3q177 37 398 74q76 13 93.5 20.5t23.5 35.5q6 18 6 42q0 28 -8 63 q-7 43 -5.5 59.5t14.5 32.5q25 28 43 28q31 0 41 -81q2 -28 4 -63q0 -37 1 -51t5 -32.5t7.5 -21t15 -4.5t25 2t39.5 13q54 19 72 19h5q14 -4 14 -39q0 -26 -4 -32.5t-21 -2.5q-7 1 -15 1q-27 0 -74 -12l-66 -15l-11 -80q-8 -61 -8 -128q0 -82 12 -175q22 -168 68 -249 q48 -87 48 -118q0 -5 -1 -9q-7 -18 -22 -18q-26 0 -76 58q-54 62 -62 120q-9 61 -23 60q-15 0 -8 27q2 9 2 21q0 24 -9 61q-11 60 -15 231q0 56 -1.5 88.5t-3.5 52t-6 24.5t-11 5q-41 -13 -254 -41q-50 -7 -83 -15.5t-70 -20.5t-80 -21q-63 -13 -88.5 -28.5t-34.5 -43.5 t-9 -89q0 -62 8 -221q3 -49 4 -84q0 -49 -7 -71q-9 -31 -37 -31q-7 0 -14 2q-39 10 -50 20q-10 10 -10 97q0 32 1 72q5 156 22 192q7 16 7 42q0 14 -2 32q-4 37 -11 45.5t-40 13.5q-28 4 -37.5 12t-9.5 29z" />
<glyph unicode="I" horiz-adv-x="1319" d="M39 382q-19 15 -19 27q0 18 39 31q53 16 212 37q149 18 164 30q9 11 20 153q2 51 13 209t14 251v108l-84 7q-32 2 -69 2q-51 0 -111 -4q-32 -3 -56 -3h-21q-29 2 -42 12t-13 26q0 14 46.5 28.5t96.5 15.5q243 8 256 23q6 4 20 4.5t37 -4.5q42 -7 204 -9q164 0 301 -17 q49 -6 76 -9.5t43 -8t19.5 -9.5t3.5 -14q1 -22 -39 -24q-22 -1 -95 -1q-58 0 -148 1q-11 0 -35 2h-23q-201 0 -239 -17q-40 -18 -54 -132q0 -14 -2 -22q-12 -129 -16 -303q-1 -51 -2 -89q0 -93 8 -113q3 -13 10.5 -19t39 -6t76 5.5t139.5 19.5q131 18 166 21q132 6 223 28 q57 14 83 14q22 0 22 -10q0 -2 -20 -9t-51.5 -15.5t-70.5 -18.5t-78.5 -19.5t-73 -17t-56 -12t-24.5 -4.5q-57 -16 -153 -35q-11 -2 -30 -7q-118 -24 -139 -33t-25 -39q-2 -5 -2 -7q-5 -37 -23.5 -72t-32.5 -35q-9 0 -25.5 18.5t-29 40.5t-10.5 33q2 5 0 7.5t-7.5 4 t-14.5 1.5t-24 -4q-114 -17 -238 -23q-44 -2 -74 -2q-54 0 -62 7z" />
<glyph unicode="J" horiz-adv-x="1260" d="M68 730q27 22 38 22q10 0 10 -14v-3q-2 -22 -21 -56q-20 -41 -19 -76q0 -53 75.5 -103t185 -77t231.5 -33h32q101 0 181 30q44 15 64 24.5t32.5 30.5t15.5 45.5t4 82.5q1 17 1 35q0 291 -175 562q-46 73 -46 107q0 16 9 24q7 11 18 11t35 -30t26 -46q2 -20 22 -42 q18 -24 43 -104q22 -79 35 -93q11 -13 48 -114q22 -63 30 -117t12 -171l5 -189l-46 -45q-9 -11 -18.5 -18.5t-19 -14t-21 -11t-26.5 -9t-32.5 -9.5t-40.5 -10q-102 -21 -160 -23h-11q-53 0 -115 14q-23 5 -80.5 19t-69.5 16q-86 18 -157 66t-108 105q-36 54 -36 110 q0 62 49 104zM240 1323q-2 2 -2 5q0 12 20 28q9 8 52.5 17t99.5 15.5t98 6.5q25 0 51 13q27 17 136 41q107 23 256 23h13h160l-81 -19q-77 -17 -146 -25q-63 -7 -79 -18q-7 -5 -40.5 -15.5t-75.5 -20.5t-72 -14q-245 -42 -274 -68q-13 -10 -27 -10l-1 -1q-14 0 -43 13 q-40 16 -45 29zM1161 1465q-11 1 -11 2t15 2q10 2 33 2q46 0 46 -4q0 -2 -9 -2q-19 -3 -38 -3t-36 3z" />
<glyph unicode="K" horiz-adv-x="1035" d="M18 719q0 16 16 34q18 21 51 45l68 48v116q-2 92 -17.5 179.5t-35.5 114.5q-16 18 -2 38t44 20q21 0 41.5 -39.5t30.5 -98.5q4 -22 8.5 -42.5t7 -32.5t5.5 -35t6 -58q2 -83 15 -97q2 -2 6 -2q19 0 76 49q72 64 105 71q49 12 294 180q55 38 70 38q9 0 21 25 q5 16 47.5 48.5t62.5 32.5h1q22 0 12 -30q-9 -23 -31 -41q-188 -160 -216 -178q-61 -37 -126.5 -91.5t-65.5 -66.5q0 -16 47.5 -95t47.5 -88q0 -11 58 -135q67 -137 129.5 -190t176.5 -68q46 -7 46 -25q0 -17 -36 -43q-35 -26 -95 -30h-15q-48 0 -64 21q-18 21 -31 20.5 t-41.5 18t-51.5 40.5t-23 34q0 14 -40 74t-40 74q0 13 -20 37.5t-20 36.5q0 34 -28.5 99.5t-57.5 100.5l-43 50l-50 -25q-50 -24 -87 -70q-24 -33 -30 -59q-4 -19 -4 -73q0 -19 1 -43q4 -144 12 -208q2 -23 2 -42q1 -45 -11 -65q-11 -20 -35 -20q-11 0 -26 5q-25 9 -33 24 t-15 65q-9 73 -9 101q0 1 -1 2q0 29 14 116q8 58 8 88q0 26 -6 30q-12 12 -46 -6q-37 -14 -55 -7q-22 8 -22 28z" />
<glyph unicode="L" horiz-adv-x="1000" d="M19 350q-1 15 -1 27q0 41 14 66q3 7 18 34.5t25.5 48.5t21 48t10.5 43q0 28 15 65q26 67 88.5 275.5t79.5 245.5q18 43 18 58q0 16 33 88q16 39 30 55q12 15 24 15h3q28 -5 27 -46.5t-31 -95.5q-33 -61 -33 -85t-13 -31q-7 -4 -20 -66.5t-20 -67.5q-11 -7 -21 -77 q-9 -69 -42 -163q-32 -93 -32 -116q0 -25 -18 -61q-28 -53 -51.5 -110t-23.5 -72q0 -40 76 -46q14 -1 35 -2q86 0 276 20q195 22 244 48q32 16 55 17q13 0 22 -6q28 -13 77 -13q57 0 78 -26q2 -3 2 -7q0 -7 -9 -13q-8 -6 -69 -15q-65 -11 -101 -35q-43 -26 -58 -18 q-4 3 -17 3q-33 0 -126 -16q-74 -11 -259.5 -30.5t-222.5 -24.5q-19 -3 -34 -3q-28 0 -41 10q-23 19 -29 79z" />
<glyph unicode="M" horiz-adv-x="1238" d="M18 706q4 184 24 285t83 226q23 47 32 55.5t27 -2.5q25 -14 23.5 -39.5t-26.5 -73.5q-30 -49 -43 -95.5t-27 -147.5q-12 -73 -13 -144q0 -14 1 -28q3 -84 19 -104q12 -18 4 -30q-8 -16 7 -42q9 -14 16.5 -17.5t23.5 4.5q22 12 37 12q16 0 24 -13q6 -9 7 -21 q0 -20 -19 -48q-7 -9 -33.5 -24.5t-52 -27t-37.5 -11.5q-9 0 -44 78q-16 35 -22.5 58.5t-8.5 55.5t-2 94zM234 1229q2 27 17 39q23 21 42 11q8 -2 11.5 -7.5t7.5 -16.5t7 -34t7 -54t10 -83q12 -143 90 -222q28 -28 43.5 -33t46.5 -1q33 7 109.5 44t97.5 57q12 11 30.5 11 t103.5 73.5t166 158t89 107.5q9 31 22 47q13 14 23.5 14t34.5 -19q18 -12 18 -27t-23 -83q-31 -91 -48 -291q-11 -126 -13 -188q0 -7 -1 -14q0 -57 11 -128q11 -83 20.5 -114t32.5 -54q33 -33 33 -49.5t-30 -44.5q-20 -20 -34 -24q-4 -1 -10 -1q-12 0 -28 5q-20 7 -30 20 t-14 39q-7 46 -44 97q-22 34 -25.5 48.5t6.5 32.5q13 25 19 87q2 51 16 235q12 114 12 161q0 22 -3 30q-1 5 -6 5q-15 0 -65 -55q-63 -68 -80.5 -68t-23.5 -18t-56 -52q-241 -156 -260 -156q-16 0 -35 -17q-11 -11 -17 -9.5t-13 14.5q-12 22 -55 15q-38 -5 -55.5 9.5 t-56.5 84.5q-48 85 -64.5 136.5t-28.5 156.5q-7 80 -7 113v12z" />
<glyph unicode="N" horiz-adv-x="1161" d="M18 596q0 75 17 150q7 33 18.5 104.5t27.5 125.5q21 69 23 198v18q0 112 -18 129q-14 15 -8.5 31t27.5 23q28 9 53 -22q23 -32 62 -32q24 0 34 -10.5t24 -49.5q53 -149 119 -270t127 -180q30 -30 48.5 -44.5t40 -21t38 -2t42.5 26t51 49t67 78.5q24 28 55 80t54.5 97.5 t23.5 59.5t34 88q40 78 62 147q18 56 18 77q0 5 -1 8q-6 13 3 16.5t37 3.5q48 0 48 -17v-1q0 -7 -13 -14.5t-13 -42.5q0 -30 -34 -96q-18 -33 -72.5 -182.5t-78.5 -186.5q-35 -51 -51 -81q-32 -57 -51 -84.5t-62 -71.5q-40 -46 -59.5 -55.5t-70.5 -9.5q-60 0 -99.5 17.5 t-77.5 59.5q-43 44 -90 122t-63 127q-23 62 -36 71q-10 7 -10 28q0 22 -23 73.5t-35 51.5q-9 0 -9 -4q-2 -4 -21 -111q-45 -223 -46 -316q0 -53 6 -67.5t35 -31.5q26 -12 31.5 -23.5t-0.5 -37.5q-10 -47 -28 -79q-11 -24 -24 -31.5t-46 -7.5q-52 0 -69 21t-17 102z" />
<glyph unicode="O" horiz-adv-x="1182" d="M18 763q0 81 69.5 181.5t220.5 237.5q24 24 49 41t42.5 26.5t50 27t55.5 30.5q70 35 96 35q21 0 57.5 -20.5t66 -46t29.5 -40.5q0 -32 47 -71.5t110 -62.5q53 -21 102 -48.5t86 -59t51 -59.5q16 -27 16 -72v-13q-2 -54 -25 -89q-21 -30 -99 -98.5t-92 -68.5 q-13 0 -46 -23q-26 -16 -166 -62.5t-152 -52.5q-38 -13 -135 -13h-15q-108 1 -167 17q-92 26 -171.5 122t-79.5 182zM96 815q-2 -15 -2 -30q0 -30 8 -59q12 -46 75.5 -110.5t107.5 -75.5q60 -16 132 -15q99 0 219 29q208 51 377 167q74 48 93.5 68t19.5 46q0 28 -37 80.5 t-59 52.5q-12 0 -54 29q-40 28 -128 58t-157 40q-49 6 -59.5 12t-5.5 24q18 55 51 55q5 0 9 -1q28 -7 26 6q-4 14 -30 40q-31 30 -74 30q-66 0 -160 -70q-26 -17 -24 -40t30 -23q7 0 12.5 -5.5t5.5 -12.5q0 -17 -72 -17h-8h-81l-86 -90q-86 -89 -86 -102t-19 -25 q-18 -16 -24 -61z" />
<glyph unicode="P" horiz-adv-x="1004" d="M18 1071q4 31 52 76q53 53 53 95t17 52q7 4 19 3q17 0 45 -8q32 -11 47.5 -11.5t33.5 13.5q72 45 279 77q21 4 51 8.5t47 7t22 4.5q25 4 39 4h8q15 -2 52 -19q100 -40 157 -126q48 -72 48 -150q0 -15 -2 -30q-7 -72 -26 -109q-20 -36 -62.5 -80.5t-58.5 -44.5 q-18 0 -52.5 -27t-58.5 -27t-37 -10q-35 -31 -243 -37q-39 -1 -73 -1q-145 0 -187 23q-30 16 -40 -2q-5 -8 -6 -51q0 -28 3 -71q6 -108 17 -123q9 -11 9 -87q-2 -55 -7.5 -64.5t-33.5 -9.5q-42 0 -66 45q-18 34 -18 80q0 15 2 32q5 41 10 107.5t9.5 135t9.5 109.5q2 28 2 48 q1 17 -1 27q-4 22 -28 58q-32 47 -32 77v6zM166 842q24 -7 70 -22q53 -18 130 -18q52 0 114 8q156 20 268 75q61 29 93.5 55t47.5 57.5t18 78.5q1 11 1 22q0 108 -82 168q-22 16 -50 22t-90 8q-129 0 -252 -32.5t-196 -89.5q-30 -22 -40 -44t-21 -80q-22 -119 -22 -170 q0 -36 11 -38z" />
<glyph unicode="Q" horiz-adv-x="987" d="M21 988q-2 43 -2 72q0 31 3 44q4 24 33 69q53 73 154.5 159.5t170.5 111.5q32 14 79 14q15 0 33 -2q23 -2 36.5 -5.5t26.5 -10t23 -15.5t25 -26q42 -50 42 -99v-50l52 7q29 4 50.5 -3.5t56.5 -33.5q55 -38 86 -90q37 -60 62 -118q19 -44 19 -58q0 -4 -2 -6q-9 -9 -9 -60 q-2 -53 -47 -103q-32 -37 -112 -96t-117 -73q-21 -8 -23.5 -21t12.5 -22q13 -7 13 -33q0 -22 28 -48q26 -22 47 -63q11 -24 25 -30.5t49 -6.5q28 0 52 -5t38.5 -14.5t14.5 -20.5q0 -28 -122 -44q-21 -3 -37 -3q-17 0 -27 4q-17 8 -70 64q-74 79 -98 130l-30 58h-99 q-137 1 -188 16.5t-105 71.5q-74 75 -105 152t-38 187zM122 841q44 -113 136 -165q61 -34 131 -34q35 0 72 9q46 11 53.5 19.5t1.5 43.5q-8 44 -26 75q-19 32 -19 56q0 25 21 41q13 10 22.5 11.5t21 -14.5t24 -45t31.5 -84q18 -55 43 -62q6 -2 12 -2q25 0 71 24q44 22 84 57 t64.5 73.5t28.5 71.5q2 12 2 24q0 51 -30 108q-38 71 -99 111l-58 41l-49 -27q-13 -7 -27 -20.5t-25.5 -29t-19.5 -28.5q-21 -47 -34 -48q-35 0 -40 63q-1 10 -1 19q0 54 27 106q24 46 25 73t-21 58q-20 28 -59 28q-31 0 -75 -18q-97 -40 -220 -156q-100 -93 -100 -221 q0 -73 32 -158z" />
<glyph unicode="R" horiz-adv-x="816" d="M21 724q5 13 15 127.5t17 124.5q9 20 21 114q10 75 10 110q0 9 -1 15q-2 24 -22 37q-24 12 -19.5 45.5t30.5 44.5q33 12 39 22q7 9 156 8h17q166 0 217 -12q52 -9 109 -48q71 -47 71 -106q0 -30 -18 -63q-12 -24 -38 -50t-53.5 -42.5t-44.5 -16.5q-27 0 -38 -12 q-17 -13 -74 -32q-13 -4 -24 -9t-19.5 -9t-13 -9t-4.5 -6q0 -15 107 -139q111 -127 146 -176q22 -34 54 -67t61 -54t43 -21q18 0 30 -31q6 -16 6 -28t-6 -21q-7 -12 -33 -13h-3q-22 0 -29 11t-44 20q-24 8 -57 26t-55.5 37t-19.5 26q8 11 -23 55q-35 52 -157 190 q-75 87 -104 129.5t-29 69.5q0 21 16 40t43.5 34t62.5 21q47 9 65 27q18 20 36 20q21 0 66 42.5t45 61.5q0 16 -54.5 44t-103.5 35q-14 2 -32 2q-40 0 -99 -10q-85 -16 -96 -32q-36 -58 -56 -286q-8 -94 -8 -156q0 -90 16 -117q7 -13 27 3q16 15 37 7.5t21 -25.5 q0 -26 -31.5 -73t-53.5 -56q-24 -9 -56.5 14.5t-32.5 51.5q0 9 -20 48q-14 28 -14 45q0 7 2 12z" />
<glyph unicode="S" horiz-adv-x="762" d="M18 1104q0 18 53.5 74.5t70.5 56.5q6 0 53.5 17.5t114 45.5t121.5 53q93 43 188 56q25 3 41 4q8 1 14 -1q18 -2 35 -20q30 -26 28 -50t-35 -66q-32 -37 -51 -33.5t-19 48.5q0 37 -15 42q-2 1 -5 1q-20 0 -92 -25q-84 -28 -164 -67q-72 -33 -85 -33q-9 0 -90 -55 q-63 -40 -70 -62.5t31 -51.5q11 -9 146.5 -51.5t211.5 -59.5q66 -16 95.5 -28.5t66.5 -38.5q54 -38 73 -78q11 -23 11 -50q0 -21 -7 -46q-9 -35 -22 -95q-5 -33 -75 -125t-116 -130q-44 -35 -98 -49q-51 -13 -131 -13h-12q-163 2 -171 93q-3 43 9 55q13 14 40 4.5t31.5 -30 t63.5 -38.5q35 -11 54 -11q14 0 20 5q13 14 33 15q25 0 72.5 25.5t78.5 55.5q38 37 85 127q26 48 37 81q8 23 8 46q0 9 -2 18q-4 31 -22.5 51t-63 41t-102.5 38.5t-150 41.5q-139 33 -213.5 89.5t-74.5 122.5z" />
<glyph unicode="T" horiz-adv-x="1486" d="M18 1238v17t3 15t7 12t12 10.5t15.5 9t23.5 8t32 7t43 7.5t52.5 8.5t64.5 9.5q88 12 136 20t76.5 14t35.5 11.5t3 11.5q-4 14 -28 15q-18 -2 -20 6t16 27q11 10 34 10q13 0 29 -3q44 -7 55 -14.5t11 -27.5q0 -12 12.5 -14.5t50.5 2.5q88 13 432 23q168 5 256 6 q92 0 97 -6q5 -5 5 -10q0 -12 -35 -23q-27 -9 -62 -9q-37 0 -229.5 -21.5t-205.5 -23.5q-57 0 -167 -13t-126 -22t-36 -59q-13 -33 -14 -51q0 -9 4 -13q7 -11 -8 -31q-16 -21 -34 -97q-47 -178 -53 -256q-1 -15 -1 -28q0 -56 22 -84q26 -32 26 -73q0 -39 -22 -69 q-17 -16 -29 -20q-4 -1 -9 -1q-11 0 -27 5q-20 5 -28.5 12.5t-14 23t-13.5 54.5q-10 49 -10 100q0 18 2 36q4 70 24 117q16 38 33 114q16 77 48 171q30 91 30 116q-1 4 -1 6q-4 11 -33 11q-16 0 -40 -3q-90 -7 -225.5 -29t-154.5 -33q-32 -16 -48.5 -11.5t-16.5 29.5z" />
<glyph unicode="U" horiz-adv-x="1026" d="M22 995q-3 38 -3 65q0 48 9 66q18 30 18 81q0 42 23 87.5t49 56.5q22 7 49 -22l30 -28l-44 -40q-46 -44 -58 -117q-5 -28 -5 -65q0 -58 12 -137q35 -225 134 -321q34 -33 50 -37q8 -2 24 -2q18 0 47 2q76 7 128 41q51 35 62 35t121 110.5t150 161.5q39 52 39 69 q0 16 29 53q23 26 43.5 109t21.5 142q0 37 -33 49q-30 11 -33.5 45t24.5 48q28 16 48 16q44 0 51 -77q1 -14 1 -29q0 -50 -13 -120q-39 -203 -120 -317q-32 -41 -32 -55q0 -15 -109 -126q-199 -203 -312 -245q-35 -13 -69 -13q-76 0 -148 64q-81 74 -125 182t-59 268z" />
<glyph unicode="V" horiz-adv-x="727" d="M28 1157q-8 80 -8 128q0 66 15 68q11 1 32 -17q18 -16 26.5 -72.5t22.5 -250.5q21 -274 46 -333q13 -31 31 -32q28 0 67 82q37 74 66 123q35 63 43 87q7 26 79 173q61 122 114 251l46 110h104l-50 -83q-48 -84 -110 -214t-91 -209q-35 -92 -87 -198q-52 -108 -52 -123 q0 -9 -33.5 -82t-33.5 -82q0 -22 -19 -35q-9 -8 -20 -8q-16 0 -36 14q-34 24 -55 72q-14 35 -28 79t-21.5 84.5t-7.5 66.5q0 51 -13 57.5t-13 91.5q0 81 -14 252z" />
<glyph unicode="W" horiz-adv-x="1221" d="M18 1119q0 204 4 257.5t18 62.5q36 23 45 -14q10 -37 10 -198q0 -40 -1 -89q-1 -58 -1 -107q0 -145 9 -211q12 -88 51 -143q31 -41 52.5 -41.5t42.5 41.5q18 39 109 137q92 104 135 159q48 65 90 111l43 50l27 -32q23 -29 23 -54q-1 -6 -1 -10q-6 -28 -66 -160 q-14 -36 -17 -69q-1 -11 -1 -31q0 -32 3 -83q9 -129 26 -129q15 0 44.5 33t53.5 81q39 72 105 170q44 64 44.5 82t53.5 113q53 92 53 102t31 79q80 172 95 219q5 18 17 23.5t43 5.5q33 0 41 -4q5 -3 5 -8q0 -4 -2 -9q-5 -17 -23.5 -52t-39 -68t-28.5 -44q-17 -18 -43 -89 q-24 -60 -86.5 -187.5t-99.5 -192.5q-70 -127 -70 -141q0 -17 -41 -71q-40 -56 -40 -81q0 -31 -55 -103l-54 -74l-33 32q-30 28 -50 90q-11 33 -23 108q-11 74 -19 144q-5 45 -5 67q0 12 1 18q4 24 -9 26q-7 2 -38.5 -38.5t-60.5 -87t-29 -58.5q0 -21 -32.5 -47.5 t-32.5 -42.5q0 -17 -32 -47q-26 -24 -54 -24h-8q-32 4 -84 41q-35 23 -49 61t-37 182q-7 39 -10 345z" />
<glyph unicode="X" horiz-adv-x="915" d="M24 468q-5 14 -5 30q0 59 69 140q44 55 44 68q0 14 28 42q28 24 80.5 104t52.5 98t-38 100q-113 242 -113 303q0 8 2 13q7 15 30 15q20 0 48.5 -32.5t37.5 -66.5q7 -22 15.5 -42.5t18.5 -47t19 -51.5q23 -63 44 -93l26 -33l139 130q138 127 219 190q53 40 97 54 q20 6 33 6q17 0 26 -9q3 -2 3 -7q0 -11 -14 -33q-20 -32 -36 -32q-17 0 -89 -50.5t-112 -90.5q-46 -48 -98 -93q-37 -32 -92 -104l-48 -65l27 -56q28 -63 35 -86q4 -15 17 -39t28 -45.5t29 -37t19 -15.5q2 0 35 7.5t65 13t38 1.5q1 -2 1 -6q0 -15 -12 -62l-18 -59h-65 q-63 0 -63 -15q0 -24 -33 -7q-14 7 -27 22q-24 27 -44.5 26.5t-11.5 28.5q7 28 -11 50q-16 20 -40 98q-24 77 -35 84q-6 4 -23.5 -9.5t-40.5 -42t-49 -63t-50 -74t-42 -74.5q-35 -76 -68 -97q-20 -14 -28 -14h-2q-6 3 -18 28z" />
<glyph unicode="Y" horiz-adv-x="899" d="M22 1296q6 18 35 18q16 0 27 -13.5t22.5 -51.5t28.5 -115q31 -142 45 -187.5t43 -87.5q37 -52 44 -52q52 17 65 21t46 19t43 23.5t39 34.5t52.5 53t64.5 76q92 105 119 154q24 42 24 78q0 7 -1 13q-2 10 -2 20q0 51 59 73q18 6 27 6q5 0 7 -1q8 -4 38 -33l35 -37l-44 -61 q-46 -57 -52 -85q-4 -26 -27 -25h-1q-25 0 -115 -128q-92 -127 -130 -166q-140 -140 -192 -151q-30 -5 -49 -11q-13 -4 -13 -63q0 -12 1 -26q3 -84 21 -118q31 -64 47 -85t34 -21q26 0 33 -15q9 -14 22 -6q13 10 32 -7q18 -14 25 0q9 15 41.5 13t32.5 -18t-22 -47 q-22 -26 -101 -34q-22 -2 -40 -2q-47 0 -64 15q-22 20 -46 21q-16 4 -41 35.5t-40 69.5q-9 23 -18 41q-8 16 -8 147v30q1 37 1 66q0 93 -10 98q-35 22 -86 260q-32 157 -48 201q-7 26 -7 44q0 10 3 17z" />
<glyph unicode="Z" horiz-adv-x="967" d="M50 630q16 2 121 82.5t186 154.5q171 151 282.5 256t111.5 115q0 17 -272 18q-176 0 -232.5 3.5t-88.5 17.5q-38 18 -46.5 42.5t13.5 46.5q14 14 31 14h2q18 -1 56 -20q34 -16 136 -16t424 14q53 4 82 4q20 0 28 -2q22 -4 39 -29l28 -33l-103 -96q-100 -92 -350 -319 q-192 -177 -211 -206q-18 -28 24 -30q21 0 107 9q51 4 86 4q52 0 73 -9q31 -17 60.5 -9.5t39.5 -9.5q9 -13 32 -6q26 8 47 -14q14 -14 14 -26q0 -19 -35 -31q-31 -11 -70 -11q-36 0 -79 9q-70 13 -138 15q-8 0 -16 1q-55 0 -71 -10q-16 -11 -53 -21.5t-80.5 -17t-79.5 -8.5 q-46 0 -65.5 7t-40.5 26q-24 26 -24 50q0 31 32 35z" />
<glyph unicode="[" horiz-adv-x="839" d="M18 136q-2 31 33 117q41 103 34 123q-8 16 5 69q11 38 19 116q18 153 53 325q21 99 22.5 155t-15.5 122l-16 72l42 44q43 42 87 57q28 6 75 20q39 8 139 10q65 2 92.5 -4t51.5 -22q57 -40 22 -76q-15 -16 -59 4q-95 39 -238 0q-47 -12 -71.5 -25.5t-31.5 -32t4 -42.5 q12 -31 5 -138.5t-28 -176.5q-14 -40 -28 -132.5t-26.5 -204.5t-19.5 -143q-12 -81 -16 -128l-2 -33l148 4q146 4 246 29q215 59 257 74q16 7 20 3.5t0 -23.5q-4 -33 -120 -89.5t-195 -65.5q-69 -4 -122 -19q-42 -13 -146 -13q-99 0 -125 -22q-14 -14 -25.5 -15t-31.5 10 q-37 20 -39 51z" />
<glyph unicode="]" horiz-adv-x="775" d="M18.5 272.5q-2.5 17.5 6 32.5t22.5 23t51 13t78.5 7t116.5 4q102 4 107 11q9 9 26 129q9 69 17.5 102.5t19 70.5t22.5 95q24 114 41 198q14 62 14 98.5t14 97.5q17 88 12 92q-7 7 -151 10q-46 1 -75 3t-52.5 5.5t-40.5 9t-33 15.5q-44 22 -63.5 51t-2.5 51q14 17 26 15.5 t42 -24.5q32 -28 60 -18q30 8 46 -8q15 -10 130.5 -6.5t179.5 18.5q59 13 92 13q15 0 22.5 -3t10.5 -10.5t3 -25.5q0 -30 -19.5 -56.5t-34.5 -17.5q-11 7 -25 -15t-27 -68q-14 -56 -35 -168.5t-26 -156.5q-3 -47 -25 -121q-61 -214 -56 -285q2 -9 7 -52t7 -66q7 -48 4 -68 t-18 -36q-40 -44 -74 -7q-16 23 -34 14q-18 -7 -111 8q-61 10 -83 9t-44 -17q-23 -12 -26 -21.5t8 -27.5q16 -33 -4.5 -48t-58.5 0q-27 9 -37.5 24t-21.5 55q-5 34 -7.5 51.5z" />
<glyph unicode="a" horiz-adv-x="812" d="M20 707q2 25 19 45q33 43 78 88.5t54 45.5t31 21q21 16 102 61q77 38 130 38q62 0 90 -53q8 -13 8 -25q0 -19 -22 -32q-31 -21 -51 5q-4 5 -5 13q-6 21 -15.5 23.5t-42.5 -3.5q-76 -12 -171 -90.5t-114 -143.5q-11 -33 -11 -53.5t14 -60.5q26 -61 52 -74q22 -12 52 -12 q75 0 202 73q122 71 173.5 110.5t73 76t24.5 97.5q2 59 18.5 73t50.5 -12q35 -25 35 -76q0 -41 -23 -100q-21 -52 -21 -151v-9q1 -26 1 -54t-0.5 -55.5t-0.5 -32.5q0 -40 19 -69q21 -32 21 -51q0 -14 -23.5 -30.5t-43.5 -16.5q-34 0 -58 128q-13 69 -13 118q0 42 10 71 q9 29 -5 27q-21 -3 -88 -56q-72 -61 -87 -61q-16 0 -68 -43q-53 -42 -102 -47q-44 -2 -55 -10q-8 -5 -22 -5q-24 0 -67 15q-67 23 -97 54q-30 30 -38 54t-12 96q-3 45 -3 72q0 13 1 21z" />
<glyph unicode="b" horiz-adv-x="721" d="M37 638q18 33 33 141q44 299 69 528q16 138 19 151q8 16 26 16q24 0 24 -41q0 -11 -2 -25q-9 -75 -9 -219t9 -149q16 -10 89 -13q76 -5 164 -21t118 -31q74 -35 110 -105q21 -41 21 -76q0 -26 -11 -50q-17 -31 -93.5 -88.5t-153.5 -96.5q-68 -33 -87 -54q-13 -18 -50 -20 q-47 0 -89.5 -21t-59.5 -53q-16 -29 -30 -33q-7 -2 -18 -3q-13 0 -31 3q-25 2 -46 79q-18 65 -18 111q0 44 16 70zM148 573q-1 -3 0 -6q0 -19 24 -25q5 -1 9 -1q21 0 37 20q18 18 48.5 18t37.5 14q7 13 34 14q24 0 41 20t36 20q24 0 79 37q114 68 124 114q1 5 1 9 q0 41 -81 83q-30 14 -56.5 23.5t-58.5 14t-85 8.5q-49 3 -79 3q-15 0 -25 -1q-30 -2 -39 -13q-11 -12 -25.5 -103.5t-16.5 -169.5q-2 -42 -5 -79z" />
<glyph unicode="c" horiz-adv-x="1066" d="M40 549q-22 46 -22 95q0 60 33 126q60 118 194 187q24 11 60 29t69 34t64 28q62 23 91.5 23t68.5 -24q36 -23 40 -35.5t-19 -30.5q-18 -16 -49 -3q-19 11 -50 11q-7 0 -15 -1q-42 -3 -76 -20q-79 -37 -121 -60t-71 -45t-60 -54q-72 -72 -72 -79q-5 -28 -5 -54 q0 -43 14 -80q18 -48 41.5 -67t129.5 -74q32 -16 144 -17q53 0 125 4q222 12 359 43q72 16 93 18t35 -11q10 -9 10 -17q0 -17 -43 -27q-18 -3 -50 -8q-64 -9 -72 -20q-5 -10 -44 -10q-38 0 -101 -18q-93 -22 -219 -34q-69 -7 -112 -7q-37 0 -56 5q-29 6 -51 6q-15 0 -25 -3 q-8 -3 -17 -3q-41 0 -103 50q-78 62 -118 143z" />
<glyph unicode="d" horiz-adv-x="1055" d="M18 645q0 85 6 113.5t26 54.5q68 88 267 155q123 42 189 42q41 0 60 -16q13 -9 19 -5.5t16 26.5q15 43 45 189q25 118 25 146q0 6 -1 8q-4 9 3 37q7 23 31 25q2 0 5 1q21 0 37 -21q8 -16 8 -52q0 -24 -4 -58q-8 -84 -37 -208.5t-64 -228.5q-26 -79 -26 -139t-13 -76 q-14 -18 -14 -73t14 -67q7 -8 28 -8q23 0 64 10q202 44 271 93q34 24 50.5 24t16.5 -24t-102 -73q-144 -68 -192 -82q-40 -10 -77 -27q-44 -18 -57 -11q-16 9 -39 -20q-19 -26 -51 -30q-9 -1 -29 -1q-48 0 -161 7q-111 3 -170.5 28.5t-106.5 83.5q-26 35 -31.5 61.5 t-5.5 115.5zM90 646q5 -84 37 -122q22 -24 86.5 -44.5t124.5 -20.5q49 2 63 9t37 46q31 46 31 72q0 4 -1 7q-2 9 6 34t21 57.5t26.5 59t26.5 54.5t13 30q12 25 14 71q2 14 2 24q-1 11 -3 15q-4 10 -21 12h-4q-24 0 -57 -12q-105 -30 -112 -31q-85 -24 -166.5 -64.5 t-101.5 -70.5q-23 -35 -23 -101q0 -12 1 -25z" />
<glyph unicode="e" horiz-adv-x="1236" d="M19 616q2 54 21 90q34 54 106 117t138 97q99 49 134 68q50 28 100 41q50 15 86 14q18 0 32 -3q44 -11 76 -62q15 -25 15 -48q0 -14 -6 -28q-15 -36 -76 -93q-40 -35 -73.5 -57t-112.5 -64q-59 -34 -156 -40q-19 -1 -35 -1q-69 0 -101 20q-31 21 -50 6t-19 -59 q0 -42 32 -70t106 -52q42 -12 73 -13q4 0 9 1q34 2 154 23q179 37 240 56q65 21 173 37q100 12 137 32q38 19 76 19l22 -2q13 -5 14 -13q-9 -13 -33 -13q-26 0 -76 -26q-55 -26 -114 -32q-65 -9 -72 -23q-9 -11 -39 -11t-48 -20t-54 -20q-33 0 -75 -19q-28 -14 -84.5 -29 t-123.5 -26.5t-122 -14.5q-27 -2 -47 -2q-30 0 -44 4q-23 6 -79 43q-70 49 -88 84q-16 32 -16 78v11zM204 760q0 -34 50 -38h13q46 0 111 22q74 25 138 69q139 93 139 127q0 3 -1 6q-5 16 -57 20q-13 1 -24 0q-36 0 -61 -8q-109 -42 -208.5 -105.5t-99.5 -92.5zM1152 644 q0 8 35 29q15 10 24 10t9 -13q0 -10 -18 -18t-32 -11q-5 -1 -8 -1q-7 0 -10 4z" />
<glyph unicode="f" horiz-adv-x="1031" d="M26 716q11 15 84 15q17 0 36 -1q17 -1 31 -1q68 0 85 15q22 19 30 111q1 37 5.5 81.5t9 78t11 79t10.5 72.5q2 11 4 32.5t3 42t3.5 46.5t2.5 44l9 103h44q46 0 165.5 -78.5t179.5 -150.5q63 -70 63 -86q0 -15 33 -44q35 -32 35 -78q0 -45 -21 -45q-10 0 -23 8 q-42 30 -94 125q-26 48 -44 65q-18 18 -19 32q0 9 -89 68q-98 65 -122.5 76.5t-34.5 1.5t-17 -137q-4 -81 -18.5 -171.5t-16.5 -162.5l-6 -103h45q47 0 211 33t234 33q67 0 74 13q11 17 48.5 14t37.5 -19q0 -9 -12.5 -17.5t-45 -15t-90.5 -16.5q-76 -12 -121 -28 q-66 -32 -340 -84q-41 -7 -56 -25q-14 -18 -29 -117q-10 -67 -10 -106q0 -18 2 -30q2 -11 2 -21q0 -38 -33 -60q-16 -9 -29 -9q-22 0 -37 27q-7 13 -7 51.5t7 101.5q10 77 10 114q0 13 -2 21q-4 33 -32 30q-18 -1 -34 -1q-81 0 -123 32q-17 13 -17 25q0 8 8 16z" />
<glyph unicode="g" horiz-adv-x="882" d="M20 268q-2 15 -2 29q0 50 32 88q20 25 39.5 31t27.5 -7t1 -40q-16 -69 -16 -97v-6q2 -25 30 -52q39 -37 90.5 -51t134.5 -14q65 2 101 4t54.5 7.5t29.5 16.5q16 15 37 15q18 0 36.5 16.5t36 46.5t32.5 71q22 65 40 178q12 77 12 109q0 14 -2 19q-10 14 -39.5 6t-54.5 -31 q-21 -18 -109 -50.5t-103 -40.5q-37 -18 -128.5 -18t-135.5 18q-96 40 -114 168q-3 17 -3 32q0 32 12 56q17 35 73 93q25 24 75.5 61.5t95.5 66.5t54 29q21 0 30 14q7 12 49 33q42 18 91 18h15q57 -3 92 -27q35 -26 35 -49q0 -16 -17 -30q-12 -11 -21.5 -8.5t-25.5 19.5 q-16 18 -32.5 21.5t-50.5 -1.5q-114 -17 -262 -142q-102 -84 -121 -146q-5 -15 -5 -28q0 -45 47 -79q40 -31 105 -31q67 0 160 33q131 44 190 74t81 60t22 82q0 67 21 74q14 5 33.5 -4t37 -29.5t26.5 -45.5q10 -28 10 -45q0 -19 -21 -57q-26 -53 -26 -103q0 -46 -21 -169.5 t-36 -156.5q-49 -122 -97.5 -172.5t-130.5 -65.5q-74 -14 -122 -14q-7 0 -14 1q-51 2 -152 28q-113 28 -159 70q-56 55 -68 122z" />
<glyph unicode="h" horiz-adv-x="639" d="M18 518q0 108 17 186q21 100 70 462q18 131 28.5 181.5t24.5 66.5q15 18 26 19h1q11 0 25 -17q5 -6 5 -26q0 -35 -16 -113q-26 -109 -60 -361q-27 -200 -27 -249q0 -13 2 -15h1q10 0 50 42q43 45 80 93q57 77 129 120q48 29 81 29q17 0 30 -7q65 -28 81 -177 q7 -84 22 -101q12 -15 5 -39q-9 -24 15 -59q14 -27 14 -38q0 -10 -8 -21q-21 -21 -50 -21q-40 0 -57 43t-22 157q-7 141 -21 155q-14 16 -48 7t-60 -40q-48 -53 -116.5 -149.5t-79.5 -125.5q-12 -35 -24 -91q-9 -53 -29 -66q-7 -4 -15 -4q-17 0 -39 17q-26 18 -30.5 38.5 t-4.5 103.5z" />
<glyph unicode="i" horiz-adv-x="348" d="M18 570v9q0 19 8 47q9 40 9 59q0 11 -3 15q-8 13 3 30q13 16 22 77q32 226 50 247q11 14 18 13.5t23 -17.5q18 -18 19 -45q0 -3 1 -8q0 -32 -10 -125q-16 -171 -19 -214q-3 -23 -3 -40q0 -33 10 -50q14 -28 5 -53t-37 -40q-16 -7 -28 -7q-9 0 -16 4q-15 10 -37 50 q-13 28 -15 48zM112 1252q-12 20 -12 42q0 27 18 57t33 37t59 7q29 0 45 -2.5t27 -10t22 -22.5q28 -36 28 -70q0 -22 -12 -42q-27 -47 -92 -47q-8 0 -16 1q-72 6 -100 50z" />
<glyph unicode="j" horiz-adv-x="786" d="M20 320q-2 24 -2 40q0 21 3 32q5 19 25 43q30 33 59.5 49t36.5 3q1 -2 1 -6q0 -16 -27 -70q-32 -58 -32 -81t27 -59q59 -81 199 -95q33 -4 61 -4q43 0 73 10q50 15 84 59t65 135q36 102 36 187q0 78 -31 143q-36 72 -36 83q0 13 -25 36t-33 57t6 52q16 21 26.5 19 t35.5 -30q22 -22 70.5 -127t59.5 -152q3 -14 3 -41q0 -47 -9 -131q-16 -133 -36 -179q-23 -51 -69.5 -110.5t-80.5 -77.5q-33 -16 -100 -20q-18 -1 -35 -1q-182 0 -294 108q-37 33 -47 54t-14 74zM422 1188q-5 22 -5 37q0 16 7 22q14 13 43 -2.5t29 -35.5q0 -28 33 -36 q37 -9 42.5 1.5t-20.5 38.5q-18 18 -21 31t5 33q14 37 44 42q7 2 15.5 4.5t15.5 3.5t16.5 2.5t17 3.5t14.5 3.5t11 3.5q7 0 59 -42q43 -36 43 -60q0 -4 -1 -7q-9 -24 -22 -24q-11 0 -42 -34q-44 -52 -127 -70q-29 -6 -52 -6q-44 0 -70 22q-22 22 -35 69z" />
<glyph unicode="k" horiz-adv-x="974" d="M18 636v32q0 136 15 206q26 111 59 228t45 135q12 27 12 40q0 17 28 61q26 41 47 41h3q22 -4 26.5 -36.5t-14.5 -53.5t-42 -95q-21 -70 -47.5 -180t-26.5 -126q0 -13 17 -13q34 0 136 52q107 53 128.5 53.5t39 21t33 20.5t39.5 23q22 26 52 33q28 6 132 52t120 61 q31 24 54 24q13 0 23 -8q12 -8 12 -17q0 -17 -44 -36q-23 -9 -52 -18q-76 -24 -104 -47q-46 -33 -187 -101q-155 -75 -170 -92q-5 -6 -5 -17q0 -18 14 -49q30 -55 100 -147.5t93 -105.5q28 -15 63 -46q146 -140 199 -144q25 -2 47 -11t50 -9q33 0 42 -12q3 -4 3 -8 q0 -9 -14 -21q-15 -14 -58 -14q-25 0 -60 4q-94 14 -142 43q-50 30 -61 47q-9 14 -33 23q-25 9 -105.5 102.5t-80.5 112t-19 23.5q-21 9 -74 94q-56 85 -63 85q-10 0 -44.5 -22t-64.5 -47.5t-34 -37.5q-1 -4 -1 -10q0 -26 18 -80q14 -42 14 -72q0 -17 -4 -30 q-9 -26 -5.5 -36.5t26.5 -28.5q30 -24 30 -53q0 -5 -1 -11q-6 -36 -47 -53q-26 -10 -36.5 -9t-22.5 18q-21 28 -21 46q0 21 -15 37q-20 19 -22 179z" />
<glyph unicode="l" horiz-adv-x="239" d="M23 358q-4 15 -4 42q0 35 7 89q6 42 14 143q23 241 78 457q12 51 21 153q10 105 21 130q9 18 15 18t24 -17t22 -39q2 -10 2 -29q0 -25 -3 -65q-4 -103 -46 -322q-56 -283 -57 -433q0 -47 6 -81q11 -53 43 -91q33 -40 33 -63q0 -12 -9 -20q-10 -8 -23 -8q-25 0 -63 29 q-11 9 -25 22q-47 49 -56 85z" />
<glyph unicode="m" horiz-adv-x="1282" d="M53 693q26 83 32 206q3 87 8 107.5t21 16.5q21 -3 34 -13q8 -11 10 -82q0 -13 1 -24q0 -56 -6 -100q-7 -41 -5.5 -53t16.5 -12q20 0 54.5 53.5t47.5 53.5q12 0 140 107q122 104 172 118q10 3 18 3q37 0 58 -49q8 -18 8 -41t-8 -50q-7 -28 -6 -44q0 -18 6 -24q4 -3 11 -3 q18 0 54 22q24 16 85 44.5t82 39.5q74 37 100 51q52 24 66 37q19 14 54 21q19 3 36 4q46 0 79 -26q45 -36 45 -106q0 -71 -14.5 -178t-25.5 -118q-13 -12 -13 -68q0 -46 -14 -66t-45 -20q-32 0 -48 58q-7 28 -7 55q0 29 9 56q16 49 26 63q13 10 5 46q-1 7 -1 14q0 26 21 47 q26 24 29 83v12q0 48 -23 56q-5 2 -12 2q-25 0 -78 -18q-69 -24 -95.5 -48.5t-59.5 -39.5q-92 -38 -111 -72q-11 -22 -35 -21q-24 0 -120 -69q-64 -44 -86.5 -53t-43.5 -1q-40 20 -40 57q0 33 32 80q51 79 51 124q0 5 -1 9q-4 12 -15 13q-23 0 -106.5 -73t-158 -154 t-74.5 -103q0 -15 -22 -32q-24 -22 -44 -71q-35 -83 -73 -83q-7 0 -14 3q-40 16 -40 83q0 63 34 170z" />
<glyph unicode="n" horiz-adv-x="788" d="M20 497q-1 5 -2 12q0 17 6 50q6 61 18 88q9 18 30.5 119.5t29.5 171.5q7 46 13.5 57t28.5 11q30 0 45 -24.5t1 -50.5q-14 -31 -16 -107q0 -12 -1 -22q0 -54 11 -58q17 -7 28 19q8 25 55 70q43 41 181 192q83 89 114 115q30 26 52 25h2q59 -8 89 -114.5t53 -383.5 q3 -67 12 -129q3 -18 3 -31q0 -20 -8 -25q-16 -11 -58 0.5t-47 29.5q-4 18 -16 42q-6 12 -6 31q0 16 4 38q8 36 8 108q0 55 -5 133q-11 176 -29 190q-13 7 -39 -7q-23 -11 -118.5 -121t-180.5 -224q-74 -98 -95 -116q-18 -13 -34 -60q-16 -52 -40 -72q-21 -18 -29 -18 t-32 25q-24 21 -28 36z" />
<glyph unicode="o" horiz-adv-x="832" d="M18 626q0 72 28 134q30 66 115.5 150.5t142.5 104.5q61 21 70 33q8 15 39 15q26 0 68 -11q92 -23 138 -66q36 -35 54 -35q6 0 9 4q15 14 55 -15q37 -28 54.5 -63.5t22.5 -97.5q3 -18 2 -32q0 -17 -4 -29q-8 -20 -54 -69q-26 -32 -47.5 -50.5t-31.5 -25.5t-42 -24.5 t-51 -28.5q-105 -63 -181.5 -86.5t-172.5 -23.5q-53 0 -72.5 9t-71.5 64q-49 52 -59.5 73t-10.5 70zM85 621q0 -37 10 -52t51 -42q59 -38 113 -40h6q53 0 148 33q167 57 278 180q39 42 45 66q1 5 1 10q0 17 -16 28q-16 9 -46 66q-13 25 -25 39t-18 11q-15 -7 -36 9 q-24 20 -80 42q-46 18 -90 21q-9 1 -16 1q-29 0 -36 -10q-9 -13 -44 -21q-37 -5 -126 -92q-68 -68 -93.5 -120.5t-25.5 -128.5z" />
<glyph unicode="p" horiz-adv-x="1064" d="M28 120q-8 9 -8 18.5t8 19.5q16 18 29 203q37 516 55 550q13 16 39 16t67 33q38 34 56 34q15 0 76 29q60 30 99.5 39t125.5 11q55 0 89 -8t97 -40q120 -57 177 -102t91 -107q20 -34 20 -50q0 -12 -8 -25q-68 -94 -130 -127q-41 -23 -150.5 -68.5t-119 -45.5t-75.5 -30 q-40 -18 -85.5 -24t-158.5 -8l-178 -3l-2 -184q0 -192 11 -244q5 -39 1.5 -49.5t-25.5 -22.5q-17 -7 -28 -7q-4 0 -7 1q-11 3 -33 25q-24 21 -28.5 36t0.5 54q4 23 4 40q0 26 -9 36zM153 564q-2 -14 -2 -24q0 -16 5 -20q6 -8 48 -15q46 -8 95 -8q47 0 97 7q104 14 170 50 q24 11 42 12q18 0 34 18q14 16 65 28q48 7 103 36t90.5 64.5t35.5 61.5q0 24 -25 56t-60 55q-97 61 -128 75q-35 16 -121 25q-46 5 -80 5q-31 0 -54 -4q-39 -7 -90.5 -30.5t-91 -49t-45.5 -41.5q-12 -32 -31 -32q-23 0 -29.5 -21t-13.5 -100q-5 -94 -14 -148z" />
<glyph unicode="q" horiz-adv-x="943" d="M24 572q-6 24 -6 46q0 46 26 88q30 46 95 104t116 78q56 26 64 39q7 13 44 13t72 18q19 11 47 11q15 0 32 -3q50 -9 82 -37q16 -13 20.5 -12t9.5 17q15 41 33 53q7 4 13 4q12 0 25 -13q20 -21 38 -79q29 -86 29 -124q0 -37 -27 -71q-30 -35 -57 -85q-26 -46 -42 -57 q-16 -8 -30.5 -83t-19.5 -182q-1 -27 -1 -49q0 -90 20 -91q9 0 29 17q37 31 175 90q35 16 48 16t35 -14q33 -22 33 -42q0 -3 -1 -7q-8 -22 -61 -31q-85 -10 -159 -80.5t-74 -142.5q0 -48 -18 -72q-13 -16 -20 -17h-1q-8 0 -31 15q-51 34 -60 95q-4 30 -4 115q0 89 5 239 q0 22 1 33.5t-1 26.5t-2 21.5t-4.5 13.5t-7 9.5t-12 4t-16 0t-21 -6t-27 -8t-33.5 -12.5q-66 -22 -122 -22q-84 0 -147 50q-69 53 -87 124zM100 623q0 -55 68 -97q54 -32 112 -32q15 0 31 2q39 5 93.5 28t97 50t51.5 45q39 78 48 146q3 25 3 40q0 18 -4 21q-9 7 -55 -13 q-24 -10 -73 -10q-31 0 -72 4q-63 7 -88 7h-3q-24 -1 -36 -14q-25 -21 -35 -21q-11 0 -76 -56q-26 -25 -38.5 -40.5t-18 -29t-5.5 -30.5zM365 851q0 -12 12 -15q3 -1 9 -1q14 0 42 6q61 9 79.5 16.5t18.5 23.5q0 15 -10 17h-4q-14 0 -53 -8q-57 -9 -75.5 -16t-18.5 -23z" />
<glyph unicode="r" horiz-adv-x="705" d="M18 464v19q0 29 4 62q10 113 11 222q2 103 10 131.5t36 28.5q26 0 72 77q51 80 100 139q49 64 70 64h1q18 0 98 -47t88 -47q10 0 36 -29q26 -34 55 -48q11 -7 20 -18.5t9 -18.5q0 -21 35 -65q25 -34 25 -53q0 -21 -34 -21q-37 0 -73.5 28t-167.5 157q-44 40 -59.5 48 t-38.5 -4q-59 -27 -127 -243q-63 -202 -63 -335v-19q2 -44 -2.5 -62.5t-20.5 -31.5q-24 -17 -42 -17q-38 0 -42 83z" />
<glyph unicode="s" horiz-adv-x="633" d="M21 888q5 52 21 72q21 25 101 69t147 68q83 30 146 29q114 0 163 -96q13 -24 13 -32t-14 -12q-21 -9 -45 11q-59 52 -130 52q-20 0 -41 -4q-50 -7 -151 -53t-120 -72q-8 -10 -9 -21q0 -17 20 -39q32 -36 84 -49q113 -30 210.5 -76.5t151.5 -98.5q49 -49 49 -63 q0 -26 -89.5 -72.5t-177.5 -67.5q-74 -16 -88 -39q-16 -20 -39 -9q-24 7 -47 -14q-16 -14 -38 -14q-11 0 -24 4l-21 7.5t-9.5 8t-2.5 8t1 14t1 19.5q0 21 50 48.5t110 40.5q44 9 74 28q26 18 56 18q29 0 56 24l32 26l-41 27q-40 30 -57 30q-13 0 -61 20q-12 6 -45.5 21 t-44.5 20q-47 18 -63 18q-18 0 -75 50q-42 34 -50 49q-5 9 -5 27q0 10 2 23z" />
<glyph unicode="t" horiz-adv-x="1341" d="M26 1049q-9 9 -8 18q0 12 14 26q14 17 104 27q76 9 156 8h30h19q53 0 70 10q20 12 27 58q10 58 16 68q6 9 26 9q7 0 16 -1q24 -4 29.5 -11t3.5 -35v-8q0 -34 24 -57q20 -21 30 -20t40 16q40 25 57 9q18 -14 29 -7q9 6 107 18t196 20q60 5 85 5q16 0 18 -2q3 -2 12 -2 q23 0 88 11q43 8 69 8t34 -8q8 -9 8 -16q0 -13 -26 -19q-21 -7 -48 -8q-46 0 -100 -18q-83 -24 -490 -64l-168 -17l-11 -40q-49 -177 -61 -349q-3 -43 -2 -78q0 -107 26 -146q24 -38 24 -56v-4q-4 -18 -46 -38l-48 -24l-38 44q-27 28 -33 50t-6 79q0 63 21 146.5t25 108.5 q3 31 14.5 78.5t22 92.5t12.5 75q4 34 -0.5 40t-28.5 4q-228 -18 -271 -20h-5q-44 0 -63 19z" />
<glyph unicode="u" horiz-adv-x="897" d="M21 809q-2 39 -2 70q0 109 20 109q11 0 33 -26q24 -26 28 -46q3 -12 3 -37q0 -17 -1 -40q-2 -25 -2 -50q0 -192 112 -326q11 -13 43 -13q11 0 27 2q56 7 81 33q31 28 43 27q22 0 130.5 109t151.5 175q63 90 72 90q12 0 12 25q0 21 34 90q33 66 33 100q-1 3 -1 6 q-4 34 -45 52q-45 20 -45 37q0 8 8 15q8 10 31 10q7 1 17 -1q38 -4 53 -20q23 -23 23 -67q0 -88 -89 -263q-18 -38 -19 -50q0 -35 -129 -186t-226 -233q-48 -38 -90.5 -63t-67.5 -31q-8 -2 -15 -2q-13 0 -17 8q-4 13 -50 33q-29 11 -42 24t-26.5 43t-23.5 46q-57 92 -64 350 z" />
<glyph unicode="v" horiz-adv-x="648" d="M20 1022q4 25 17 25q11 0 39 -32q28 -28 35 -116q5 -92 34 -186t57 -120q9 -7 20 -7q45 0 123 118q56 90 100 149q45 65 62 141q17 73 29 90q13 16 37 17q39 -1 55 -55q5 -18 5 -33q0 -31 -21 -53q-21 -24 -61 -93q-35 -63 -94 -150q-55 -79 -66 -116q-6 -29 -94 -114 l-85 -81l-46 46q-46 46 -62 102q-8 28 -16.5 50t-13 33.5t-11 36t-12.5 67.5q0 1 -8 48.5t-12.5 82.5t-9.5 80q-3 25 -3 44q0 15 2 26z" />
<glyph unicode="w" horiz-adv-x="1339" d="M20 985q2 12 17 18q30 10 51 -27.5t28 -113.5q23 -256 53 -283q6 -4 13.5 -3t18.5 8t26.5 20t39.5 36q81 74 89 104q7 35 41 55.5t60 7.5q35 -20 37 -112q0 -37 14 -51q3 -3 9 -3q16 0 51 20q49 28 111 83q55 48 62 49q11 0 59 35q32 22 44.5 23.5t27.5 -10.5 q11 -4 15.5 -6.5t25.5 15t48 43t80 80.5q150 149 168 190q20 42 41 75q20 30 44 33h5q20 0 24 -27v-6q0 -23 -27 -62q-55 -81 -87.5 -128t-59.5 -79.5t-58 -63.5q-65 -68 -127 -142q-55 -68 -85.5 -87.5t-58.5 -5.5q-26 15 -51 16q-13 0 -62 -39.5t-95 -86t-50 -60.5 q-7 -21 -50 -17q-37 4 -71.5 37.5t-36.5 69.5q0 29 -10 29q-14 0 -33.5 -23.5t-14.5 -36.5q8 -18 -9.5 -38.5t-41.5 -20.5t-37 -30q-12 -30 -38 -53t-60 -32q-12 3 -22 -1q-3 -1 -6 -1q-7 0 -13 6q-8 9 -16 18.5t-14 32.5t-10.5 47.5t-11 67.5t-11.5 88.5t-12 110.5 q-18 157 -22 184q-3 23 -3 36q0 7 1 11z" />
<glyph unicode="x" horiz-adv-x="864" d="M18 314q0 24 26 55q33 39 33 48q0 11 148 162q144 153 146 172q0 12 -28 114q-28 90 -29 125t22 50q14 7 25 7q10 -1 18 -7q15 -14 27 -48t20.5 -70t21.5 -62.5t29 -26.5q11 0 113 85q123 98 144 112q40 29 68 29q23 0 37 -19q8 -11 8 -21q0 -5 -1 -9q-5 -16 -26 -16 t-37 -21q-23 -26 -66 -53q-16 -11 -45.5 -33t-55.5 -43.5t-55.5 -44.5t-44.5 -34l-29 -21l35 -75q33 -78 57 -85q18 -7 19 -23q0 -11 9.5 -23t26.5 -23.5t37 -21.5t44 -15.5t45 -7.5q42 -2 57.5 -8t17.5 -19q7 -33 -3 -47t-32 -4q-16 8 -24.5 6t-17.5 -18q-7 -16 -21 -20 t-57 1q-63 9 -77 30q-18 18 -52 40q-15 9 -38 40.5t-40 68.5q-38 79 -58 86q-4 2 -10 2q-30 0 -94 -62q-22 -24 -90 -93q-37 -35 -37 -47q0 -16 -58.5 -78.5t-75.5 -62.5q-32 0 -32 29z" />
<glyph unicode="y" horiz-adv-x="927" d="M18 -105q0 33 24.5 74.5t177.5 269.5q151 224 153 244q-2 11 -21 15q-35 3 -53.5 26t-35 83t-38.5 197q-15 85 -15 123q0 24 6 30q9 8 17 8q23 0 41 -60l10 -38q27 -139 53 -199.5t55 -60.5q8 0 49 39.5t48 39.5q12 0 162 153q153 153 190 173q38 18 51 19h1q11 0 16 -19 q1 -3 1 -7q0 -21 -36 -65q-41 -52 -56 -85q-16 -35 -40 -42q-28 -11 -61 -50q-7 -9 -42 -46.5t-57 -64t-50 -59t-42 -53.5q-32 -48 -56 -65q-24 -16 -24 -32q0 -18 -81 -117q-73 -90 -129 -173q-9 -14 -25.5 -40.5t-29 -44l-17.5 -24.5q-23 -35 -34 -74q-26 -112 -79 -112 q-20 0 -26.5 7.5t-6.5 29.5z" />
<glyph unicode="z" horiz-adv-x="1046" d="M22 424q10 32 39 40q32 8 123 76q213 160 234 160q23 0 89 40q66 42 119 86q45 37 45 51q0 3 -2 4q-11 9 -160.5 34t-204.5 25q-59 0 -93 20t-34 53q0 29 26 37q15 5 34 4q13 0 29 -2q195 -33 366 -51q59 -4 94 -21.5t55 -54.5q13 -22 13 -48q0 -10 -2 -20 q-7 -37 -31 -37q-16 0 -52 -35q-55 -61 -232 -151q-48 -24 -102.5 -60t-92 -66.5t-39.5 -39.5q0 -11 61 -5q25 4 41 4q22 0 26 -8q7 -8 184 -8q64 0 151 1q89 1 154 1q155 0 167 -8l2 -10q-4 -23 -58 -34q-164 -34 -257 -34h-5q-75 -2 -83 -11q-7 -5 -81 -5q-37 0 -91 1 q-39 2 -93.5 3t-112.5 1.5t-81 0.5q-123 2 -137 19q-11 10 -11 27q-1 9 3 21z" />
<glyph unicode="{" horiz-adv-x="1115" d="M22 654q6 26 33.5 44.5t106.5 49.5q132 49 52 119q-49 42 -85.5 102.5t-36.5 105.5q0 35 11 53.5t54 56.5q103 90 346 190q59 25 74 33q49 28 86 -13q25 -28 14.5 -47.5t-54.5 -28.5q-46 -7 -53 -19q-8 -11 -36.5 -11t-141 -53.5t-121.5 -53.5q-13 0 -53 -51 q-42 -46 -30.5 -77.5t104.5 -121.5l49 -49t29.5 -34.5t16 -28t4.5 -22.5q0 -24 -7.5 -39t-25 -27.5t-50.5 -31.5q-48 -22 -50 -44q2 -9 11 -9q16 0 69 -22t54 -22q21 -7 32 -52q12 -55 -36.5 -78t-121.5 6q-23 9 -45 -7q-9 -9 -32 -23t-38.5 -26.5t-27.5 -31.5 q-11 -23 -11 -35.5t11 -42.5q37 -84 238 -107q359 -40 420 -62q46 -18 87 -19q37 0 54 -16q16 -16 95 -15q31 1 49 -0.5t26.5 -6t6.5 -13.5t-12 -23q-28 -42 -120.5 -42t-222.5 42q-112 37 -174 41q-160 12 -220 21t-120 27q-84 23 -144 72q-126 111 -1 252q51 57 52 74 q0 13 -49 23q-38 7 -56.5 32.5t-9.5 60.5z" />
<glyph unicode="|" horiz-adv-x="211" d="M21 -65q-6 79 1 91q21 33 18 347q-1 149 17 856q4 218 13 231q9 14 34 14t35 -12q10 -18 22.5 -131.5t2.5 -132.5q-9 -26 -20 -772q0 -67 16.5 -222.5t27.5 -177.5q7 -18 7 -30t-7 -18q-14 -15 -7 -68l7 -52h-160z" />
<glyph unicode="}" horiz-adv-x="846" d="M18 -2q0 15 31.5 25t116.5 23q208 30 269 59q40 20 65 20q14 0 39 20.5t40 20.5q20 0 53 26q24 16 25 23.5t-19 35.5q-30 39 -102.5 84t-97.5 39q-37 -9 -47.5 15t3.5 74q13 37 24 47t36 12q36 2 90.5 21t58.5 32q0 2 -6 4.5t-15.5 6.5t-24.5 7t-33.5 5.5t-38.5 6.5 q-100 11 -129.5 29t-29.5 70q0 9 -1 19.5t-2 14.5t-1 10t3 9t8 6.5t13 8.5q30 16 116.5 90t165.5 151q46 45 63.5 64.5t20 41.5t-11.5 36.5t-53 46.5q-46 38 -99.5 57.5t-162.5 38.5q-127 22 -140 28q-21 7 -46 7q-28 2 -32.5 34t19.5 51q26 18 46 8q37 -14 89 -28t57 -10 q7 5 81 -9q53 -9 135.5 -48t144.5 -84q35 -24 59 -73.5t16 -80.5q-5 -18 -90.5 -111.5t-159.5 -159.5q-51 -46 -52 -53q0 -18 39.5 -50.5t60.5 -32.5q30 0 86 -19q55 -21 74 -13q21 8 42 -28q46 -70 -56 -119q-53 -25 -74 -35q-24 -13 -42 -13t-43 -19q-18 -12 -17.5 -17.5 t26.5 -16.5q15 -7 44.5 -35t53.5 -61q38 -48 48.5 -70t5.5 -46q-17 -82 -109 -108q-46 -12 -90 -46q-44 -33 -58 -19q-13 12 -72 -5q-46 -11 -157.5 -26.5t-146.5 -22.5q-109 -23 -109 31z" />
<glyph unicode="~" horiz-adv-x="1199" d="M21 682q7 23 7 41q0 14 78 93.5t132 117.5q110 79 180 93q39 7 87.5 -21t53.5 -58q5 -26 39 -97q26 -49 40 -61t53 -18q70 -11 132.5 19.5t145.5 113.5q107 107 139 131q48 39 57 39q29 0 11 -53q-18 -54 -56 -74q-27 -13 -72 -83q-38 -70 -65 -82q-18 -9 -87 -59 q-55 -40 -131.5 -66t-120.5 -16q-21 3 -43 19t-39.5 38t-31.5 47.5t-18 51.5q-7 48 -18 57q-12 7 -12 33q0 32 -33.5 43t-65.5 -9q-33 -23 -51 -23q-21 0 -95.5 -80t-94.5 -122q-22 -50 -48 -57t-53.5 8t-19.5 34z" />
<glyph unicode="&#xa2;" horiz-adv-x="941" d="M18 784.5q4 82.5 47 149.5q28 44 85.5 97.5t92.5 67.5q11 3 39 27q22 18 79 48q35 17 50 34.5t29 59.5q11 32 36 89t34 88q6 17 17 23t41 6q33 0 36.5 -3.5t-13.5 -21.5q-22 -26 -46 -93q-24 -66 -31 -79q-41 -37 56 -95q55 -35 69.5 -60t-7.5 -46q-13 -12 -23.5 -9.5 t-42.5 24.5q-46 37 -66 37q-15 0 -29 -26.5t-10 -44.5q3 -11 -15 -47q-33 -65 -87 -387q-22 -135 32 -155q24 -9 70.5 -8t67.5 12q15 9 81 28q53 14 125 83t102 136q13 28 24 45t21 25.5t18.5 8.5t15.5 -9q16 -20 2 -29q-13 -8 -13 -26q0 -23 -61 -110.5t-110 -140.5 q-64 -63 -92 -63t-35 -10q-9 -15 -86.5 -31t-114.5 -8q-35 5 -51 -6t-21.5 -48t0.5 -107q5 -111 -4 -110q-24 0 -40.5 49.5t-20.5 130.5q-2 55 -7.5 88t-15.5 49t-28 16q-21 0 -82.5 71t-85.5 122q-36 76 -32 158.5zM103.5 776.5q1.5 -64.5 19.5 -107.5q25 -60 98 -110 q55 -41 55 -8q0 18 30 180.5t42 216.5q19 64 23 110q0 41 -43 20q-16 -9 -48 -28q-53 -37 -102 -87t-62 -85q-14 -37 -12.5 -101.5z" />
<glyph unicode="&#xa3;" horiz-adv-x="1076" d="M18 218l37 55q35 53 77 75q41 21 74 52q35 29 95 63q63 37 112 81l53 46l-37 73q-12 28 -18.5 41t-23 26.5t-28 18.5t-46.5 10.5t-63.5 7.5t-96.5 5q-90 6 -109 6q-12 1 -10.5 28t14.5 36q16 8 147 6q133 -2 141 20q2 11 -8 28q-35 62 -66 164q-18 55 -12 87.5t43 67.5 q39 37 115.5 75t111.5 38q27 0 48 14t85 7t93 -28q35 -22 35 -55t-35 -46q-22 -9 -35 -5t-31 25q-24 26 -65.5 33.5t-53.5 -12.5q-7 -13 -37 -14q-26 0 -100 -42q-55 -33 -74.5 -66t2.5 -55q14 -15 15 -43q0 -28 20 -53q21 -28 21 -44t40 -70q28 -33 43.5 -41.5t46.5 -4.5 q361 16 410 32q105 28 110 18q4 -4 0 -13q-3 -24 -90 -39q-39 -7 -83 -17.5t-70 -17t-71.5 -13t-101.5 -11.5q-131 -13 -139 -21q-7 -7 7 -37q32 -70 34.5 -93t-17.5 -69q-24 -59 -55 -75q-25 -11 -83 -57q-60 -46 -179 -109q-81 -44 -33 -68q32 -17 105 -17q66 0 198 13 t158 24q24 9 101 27q49 13 65 11.5t35 -22.5q9 -8 12.5 -13t4.5 -9.5t-1 -6.5t-9 -4q-5 -2 -37.5 -11.5t-62 -16.5t-46.5 -7q-30 0 -99 -20q-83 -28 -279 -57q-49 -7 -56 -18q-6 -11 -44 -12t-46 10q-8 7 -19 11q-76 9 -113 61z" />
<glyph unicode="&#xa7;" horiz-adv-x="753" d="M25.5 339.5q20.5 49.5 55.5 36.5q16 -7 46 -68q48 -104 149 -120q78 -11 146 -11q35 2 48 8.5t19 24.5q12 31 33 41q16 5 24 41t-1 62q-5 16 -83.5 81t-92.5 65q-9 0 -79 66q-57 51 -81.5 104.5t-24.5 124.5q0 118 72 143q72 26 31 66q-13 13 -24.5 44.5t-18 72 t-6.5 79.5q0 61 8.5 80.5t54.5 63.5q63 63 103 66q21 4 45 3t48.5 -3t44.5 -6.5t31 -10.5q23 -12 48 -12q24 0 48 -33.5t17 -55.5q-15 -36 -168 2q-99 26 -136 -2.5t-37 -126.5q0 -63 23 -99.5t56 -27.5q24 7 40 -11q15 -21 50 -21q30 0 98 -28q67 -29 67 -55.5t28 -57.5 q32 -35 31 -104.5t-36 -134.5q-24 -47 -37 -57t-58 -15q-63 -3 -63 -18q0 -14 43 -58.5t58 -44.5q11 0 28 -50q9 -31 9 -47t-12 -32q-20 -35 -25 -77q-9 -41 -46.5 -98t-60.5 -57q-18 0 -33 -19q-13 -18 -77 -7q-152 26 -265 73t-113 83q0 27 -18 53q-27 35 -6.5 84.5z M301 765q3 -33 6 -44.5t12 -17t35 -8.5q112 -21 139 -18t61 40l47 46l-39 28q-29 21 -122 66l-83 40l-29 -37q-18 -20 -23.5 -39t-3.5 -56z" />
<glyph unicode="&#xad;" d="M29.5 650q-20.5 17 2.5 47q18 29 40 29q21 0 109 -44q48 -22 81 -22q37 0 81 -15q37 -12 227 0.5t209 29.5q15 13 30 7q13 -9 50 11q12 5 33 10.5t43.5 8t43 2.5t33.5 -3.5t13 -10.5q0 -11 -46.5 -32t-69.5 -21q-28 0 -79 -26q-39 -18 -104.5 -32t-147.5 -21t-167 -7 q-103 0 -147 6t-116 32q-98 34 -118.5 51z" />
<glyph unicode="&#xbf;" horiz-adv-x="932" d="M18 373q5 105 37.5 147t141.5 85q65 24 146 28.5t102 -14.5q14 -16 30 -5t10 120q-7 110 0 117q15 15 48 -9q21 -14 32.5 -99t11.5 -210q-2 -100 -22 -110t-91 54q-68 59 -108 68q-45 11 -121.5 -13.5t-111.5 -59.5q-28 -30 -32.5 -47t-0.5 -79q5 -75 36 -134t76 -89 q32 -18 52 -18.5t92 13.5q76 14 188.5 66t144.5 63q81 26 108 46q27 21 78 20.5t51 -20.5q0 -38 -81 -54q-118 -22 -162 -56q-18 -17 -33 -17q-14 0 -32 -22q-14 -14 -39 -28t-56 -30t-49 -27q-33 -20 -112 -37t-113 -9q-29 3 -42 3q-18 2 -61.5 43t-67.5 80q-54 84 -50 234 zM406 1054q-15 96 88 126q50 14 82 11.5t68 -25.5q38 -24 41 -34t-12 -54q-16 -44 -43 -44q-26 0 -58 -30q-18 -18 -35 -20.5t-58 4.5q-46 9 -56 18t-17 48z" />
<glyph unicode="&#xc0;" horiz-adv-x="880" d="M18.5 417.5q-0.5 11.5 11.5 30.5q107 183 110 188q26 32 26 48q0 9 46 77.5t46 77.5q0 16 27 42q18 16 99.5 144.5t94.5 142.5q28 35 47 78q12 31 42 47t49 1q18 -9 14.5 -42t-26.5 -63q-32 -41 -17 -51q10 -9 33 10q24 25 24 36q0 8 25 47q21 28 64 95q22 35 34.5 45 t35.5 8q77 -9 55 -139q-11 -61 -20 -280q-9 -216 -19 -234q-9 -22 0 -173q11 -168 12 -258q1 -74 -3.5 -90.5t-30.5 -27.5q-22 -11 -31 -10.5t-23 19.5q-18 26 -10 44q3 15 -15 69q-16 37 -15.5 50.5t15.5 37.5q23 35 15 53q-6 18 5 121q13 103 2 130q-11 26 -41 30.5 t-62 -17.5q-31 -21 -148 -15q-8 0 -26 2q-75 4 -99 -12.5t-96 -119.5q-5 -7 -8 -12t-8.5 -12.5t-9.5 -12.5q-53 -76 -84.5 -114.5t-55.5 -54t-39.5 -8.5t-31.5 37q-13 24 -13.5 35.5zM245 684q0 -22 22 -4q7 8 15 20q18 26 5 26q-9 0 -25.5 -16.5t-16.5 -25.5zM383 846 q8 0 20 14t21 32q24 46 55 66q33 23 33 43.5t-11 20.5q-12 0 -40 -23.5t-28 -36.5q0 -14 -35 -51q-60 -65 -15 -65zM466 793q21 -16 108.5 -7t129.5 32q30 16 37.5 35t14.5 95q0 5 3.5 42t6.5 74.5t5.5 78.5t1.5 66.5t-4 25.5q-9 0 -56.5 -56.5t-67.5 -91.5q-24 -42 -59 -83 q-96 -118 -117 -156.5t-3 -54.5zM653.5 1468q4.5 6 25.5 6t25.5 -6t-3.5 -12.5t-21 -6.5t-22 6.5t-4.5 12.5z" />
<glyph unicode="&#xc1;" horiz-adv-x="855" d="M18.5 318q-0.5 10 13.5 30q20 30 19 46q0 13 27 47t27 57q0 22 18 40q18 24 85 151q68 131 100 173q37 55 98.5 167t83.5 165q45 94 85 115q39 22 54.5 11t54.5 -83q24 -45 33 -85t17 -122q5 -62 8.5 -97.5t10.5 -55.5t12 -24.5t16 -1.5q18 8 38 -5.5t20 -32.5 q0 -21 -17 -20q-18 0 -44 -28q-11 -13 -16.5 -29.5t-7.5 -49t-2 -98.5q0 -546 76 -590q11 -9 11 -46q0 -24 -6.5 -33t-28.5 -14q-34 -9 -58 3q-35 23 -45 92.5t-17 327.5q-9 340 -17 349q-9 9 -90 -7q-76 -12 -176 -5l-95 10l-68 -139q-67 -140 -67 -151q0 -21 -41.5 -73 t-57.5 -52q-21 0 -39 30q-14 18 -14.5 28zM367 763q6 -7 73.5 -8t120.5 6q47 8 77 32q21 14 25 31.5t2 71.5q-2 85 -2 99q0 21 -23.5 92.5t-36.5 75.5q-14 5 -44 -35.5t-66 -106.5t-41 -73q-21 -34 -42 -75t-34 -72.5t-9 -37.5zM565.5 1399.5q4.5 45.5 14.5 63.5q6 11 62 11 q44 0 46 -5q0 -4 -13 -18q-23 -23 -23 -52q0 -23 -32 -42t-50 -8q-9 5 -4.5 50.5z" />
<glyph unicode="&#xc2;" horiz-adv-x="851" d="M18 503q-4 79 32 153q26 57 26 68t53.5 109.5t67.5 114.5q11 10 11 28t45 71q57 70 90 119q100 148 123 148q13 0 39 -22q16 -14 23 -14.5t21 18.5q19 20 47 83q22 44 32 50.5t34 -6.5q27 -18 94 -610q14 -124 35.5 -255.5t30.5 -144.5q7 -11 13 -85q2 -70 -19 -77 q-10 -3 -34 2t-44.5 14t-20.5 17q0 1 -1.5 22.5t-5.5 63t-8 76.5q-4 57 -10 176t-14 215.5t-18 163.5q-13 101 -16 156q-6 67 -23 85q-9 13 -16 13.5t-25 -15.5q-22 -22 -38 -64q-18 -40 -59 -101q-46 -72 -87 -152q-26 -53 -31.5 -75t2.5 -34q16 -18 91 -19.5t115 14.5 q32 13 48.5 3t6.5 -38q-16 -40 -140.5 -69.5t-174.5 -4.5q-24 15 -38.5 1.5t-86.5 -115.5q-55 -79 -74.5 -96t-52.5 -17q-24 0 -32 6t-11 24zM148 689q7 -7 27 11.5t20 34.5q0 23 -12 23q-13 0 -26 -28q-15 -33 -9 -41zM245.5 897.5q-6.5 -18.5 2.5 -37.5q15 -28 19 -27 q6 0 40 51.5t74.5 120t63.5 114.5q33 65 28 77q-3 6 -34 -28t-75 -91t-80 -113q-32 -48 -38.5 -66.5z" />
<glyph unicode="&#xc4;" horiz-adv-x="962" d="M20.5 153q-7.5 41 29.5 107q1 4 5 9q77 141 86.5 167.5t-11.5 50.5q-26 26 -13 50t54 24q14 0 25.5 4.5t21 15t20.5 33.5q114 206 166 272q41 50 41 58.5t75 117.5q122 181 169 236q37 44 28 77t13 67q11 14 20.5 20.5t25 9t44.5 2.5q65 0 59 -12q-9 -13 -33 -13 q-13 0 -24 -6.5t-14.5 -15t-0.5 -13.5q7 -4 63 16q78 32 74 -5q-4 -32 -45 -59q-16 -11 -27 -12q-14 0 -38.5 -20t-33.5 -22q-16 0 -177.5 -218t-163.5 -243q-2 -14 -28 -38q-26 -23 -35 -52q-7 -24 -40 -70q-32 -42 -32 -60.5t41 31.5q25 33 26 45q0 13 35 47t56 74 q20 39 63 95q46 55 46 63t41 64q74 102 138 54q28 -20 52 -67t24 -80q0 -37 14 -83q13 -44 14 -288q0 -240 11 -301q14 -70 24 -116q11 -47 0.5 -65.5t-49.5 -18.5q-49 1 -65.5 28t-22.5 108q-2 104 9 131q23 61 10 319t-43 314q-13 26 -39.5 22t-48.5 -36q-9 -13 -31 -40 t-26 -32q-33 -40 -102.5 -139.5t-69.5 -107.5q0 -10 -21 -33q-37 -40 8 -39q65 4 189 71q51 28 91.5 27t40.5 -31q0 -21 -48.5 -57.5t-73.5 -36.5q-20 0 -35 -15q-16 -16 -87 -40.5t-101 -24.5q-14 0 -51 -25.5t-68.5 -56t-31.5 -43.5q0 -7 -33 -57t-33 -55q0 -26 -39.5 -75 t-60.5 -49q-49 0 -56.5 41zM357 1445q-5 23 10 26q16 3 110 3q129 0 130 -21q-4 -18 -53 -58q-61 -51 -117.5 -36.5t-79.5 86.5z" />
<glyph unicode="&#xc7;" horiz-adv-x="1194" d="M35 663q-40 109 18 244q24 53 136 166.5t165 137.5q122 57 216 89q20 5 45 13t35 11.5t27.5 7t36 5t46.5 3.5q54 2 70 -24q14 -30 10.5 -45t-38.5 -58q-37 -47 -54.5 -48.5t-24.5 42.5q-4 30 -12.5 39.5t-33.5 10.5q-39 2 -61 -15q-18 -16 -96 -39q-204 -63 -365 -283 q-41 -52 -50.5 -77t-9.5 -76q0 -123 119 -222q32 -26 56.5 -32t98.5 -6q70 0 122.5 8.5t113 31.5t158.5 70q37 18 61 30.5t47 26.5t38.5 24.5t35 27t37 33.5t43.5 45q153 154 153 88q0 -18 -96.5 -116.5t-170.5 -158.5q-63 -47 -115 -64q-51 -17 -89 -41q-33 -26 -47 -25 q-9 0 -52.5 -20.5t-102.5 -31.5q-44 -9 -61.5 -15.5t-16 -23t22 -38.5t70.5 -71q76 -72 93 -96.5t17 -61.5q0 -32 -13.5 -58.5t-62.5 -83.5q-51 -61 -71 -75t-54 -14q-29 0 -43.5 8t-28.5 26q-22 33 -14 61q5 16 14.5 19.5t33.5 0.5q24 -8 39.5 0t44.5 37q48 45 49 72 q0 10 -28 45t-67 72q-93 92 -93 128q0 23 -8.5 31t-35.5 12q-74 12 -148 86t-109 167z" />
<glyph unicode="&#xc8;" horiz-adv-x="990" d="M21 352q3 5 26 13t44 15t25 14q9 15 9 183q0 123 -4.5 147t-28.5 30q-34 7 -31.5 40.5t37.5 47.5q24 13 31.5 33.5t14.5 100.5q13 162 9 194t-37 37q-40 7 -44 37q-5 30 0 30q4 0 76 27q72 25 93 13q26 -13 142 7q121 23 215 28q46 2 137 16t155 12q46 -2 63.5 -7.5 t21.5 -18.5q3 -24 -29 -37.5t-105 -19.5q-395 -31 -551 -79l-54 -17l-9 -138q-9 -138 3 -155q18 -22 192 20q46 13 176 23q84 7 107 3.5t43 -22.5q30 -30 22 -43q-5 -5 -12 -7.5t-34 -3.5t-79 1q-72 0 -89 -16q-18 -16 -32 -7q-15 9 -78 -5q-72 -16 -140 -30 q-30 -5 -44.5 -8.5t-27.5 -16t-17.5 -23t-6.5 -41.5t0 -61t8 -91q3 -63 6 -92.5t12 -59t16.5 -37.5t30.5 -14.5t43 -3.5t66 8q48 5 271 40q161 27 176 11q21 -14 16 -25.5t-41 -36.5q-77 -57 -397 -75q-127 -8 -150 -28q-16 -15 -29 -15.5t-48 15.5q-53 22 -92 21 q-31 0 -59 24.5t-18 42.5zM383 1462q-10 12 102 10q85 0 85 -3q0 -4 -26 -9q-57 -11 -106 -11t-55 13z" />
<glyph unicode="&#xc9;" horiz-adv-x="855" d="M19.5 449q-3.5 34 1.5 228q5 262 16 296q13 46 13 179q1 33 2 58t4 45t7 34t9 23t11.5 13t16 4t19.5 -4t23 -13q24 -14 88 7q62 23 87 23q21 0 75 18q54 21 231 19q118 -2 151 -5.5t48 -22.5q18 -18 17.5 -25t-19.5 -19q-26 -21 -81 -11q-61 11 -177 6.5t-131 -18.5 q-9 -10 -55 -10t-102 -16t-80 -36q-55 -48 -64 -147l-5 -60l61 5q55 2 85 16q31 16 115 33.5t169 28t155.5 12.5t76.5 -11q12 -16 13 -28q0 -37 -177 -44q-107 -7 -173.5 -19.5t-183.5 -49.5q-113 -35 -137 -58.5t-24 -99.5q0 -83 9 -93q11 -10 13 -84q2 -32 3.5 -49.5 t9.5 -32t17 -18t32 -3.5t48 4.5t71 13.5q103 23 138.5 32.5t86.5 34.5q24 9 84 24.5t85 28.5q44 21 63.5 6t3.5 -59q-15 -39 -34 -32q-16 7 -65 -29q-47 -37 -104 -39q-59 -5 -89 -23q-35 -21 -118 -36q-83 -14 -106 -22q-21 -7 -43 -6q-9 0 -76 -10t-88 -2q-23 9 -26.5 43z M311 1453q-5 12 3 16.5t36 4.5q39 0 46.5 -8t-13.5 -29q-7 -7 -22.5 -11.5t-28.5 -4.5t-13 5q0 2 -8 27z" />
<glyph unicode="&#xca;" horiz-adv-x="921" d="M21 422q-7 83 5 132q14 57 35.5 216t28.5 203q32 171 -11 193q-28 15 -28 60q0 28 11.5 42t44.5 37q50 33 70 34t41 -27q14 -20 39 -24t132 -1q246 4 249 44q0 11 -22 22q-22 13 -52 66l-29 55h70q33 0 48.5 -2.5t26.5 -10.5t24 -27q33 -39 49.5 -39t31.5 -23 q12 -25 68 -19q16 1 26.5 0.5t17.5 -2.5t8.5 -4.5t-0.5 -8.5q-5 -14 -49.5 -37.5t-81.5 -32.5q-227 -48 -309 -60t-152 -8q-37 0 -56 1t-31 -3t-17 -8.5t-10 -13.5q-7 -20 -17.5 -68t-16 -90.5t-1.5 -49.5q9 -11 70 -18q46 -4 137.5 13.5t293.5 68.5q61 16 112 22t80 1 t29 -19q0 -21 -99 -42q-87 -18 -161 -46q-91 -34 -204.5 -61.5t-176.5 -29.5q-87 -2 -101 -18q-11 -13 -16 -187.5t7 -185.5q13 -12 68 -21.5t68 -1.5q16 9 42 11q67 3 150.5 17t149.5 32.5t85 34.5q15 11 67.5 3t58.5 -23q3 -11 -46.5 -35t-79.5 -24q-26 0 -84 -21 q-76 -28 -183 -51.5t-183 -29.5q-98 -9 -125 -35q-22 -18 -30 -19t-32 14q-18 12 -26.5 32t-13.5 73zM221 1368q-7 41 6 71q11 24 28.5 28t90.5 4q94 0 99 -11q1 -6 -5 -16q-11 -30 -75 -73t-99 -43q-23 0 -32 7t-13 33z" />
<glyph unicode="&#xcb;" horiz-adv-x="927" d="M18.5 838.5q-4.5 12.5 7.5 26.5q18 21 42 25q18 2 22 19.5t0 87.5q-2 102 -29 185q-24 84 -11 109q10 22 26 21q16 0 114 -31q68 -23 105 -27t106 2q117 8 268 47q51 13 114 25q59 10 67 10q5 2 40 -22q51 -41 -12 -62q-21 -8 -52 -10q-30 -4 -73.5 -12t-76 -16.5 t-82.5 -21t-63 -16.5q-49 -12 -174 -14.5t-160 10.5q-22 8 -26 -9q-4 -23 19 -215l7 -65l63 11q61 5 76 18q12 13 40 13q16 0 80 33.5t84 33.5q32 0 67 18q35 16 100 33q43 11 58.5 10t29.5 -14q26 -26 -10 -40q-21 -7 -68 -18q-81 -23 -188 -74q-14 -5 -56 -23.5t-53 -25.5 q-56 -28 -74 -27q-12 0 -29.5 -20t-60.5 -20q-54 0 -75 -36t-17 -129q2 -102 17 -121q16 -21 2 -46q-17 -30 -1.5 -54.5t54.5 -33.5q37 -8 118 0.5t91 20.5q7 11 38 12q32 0 39 14q7 13 68 28q54 13 80 39q23 26 39 25q13 0 51 26q31 28 68 35q24 6 29 2.5t5 -26.5 q0 -53 -132 -125q-57 -32 -90 -53q-41 -32 -67 -32t-51 -19q-26 -18 -124.5 -34.5t-130.5 -7.5q-11 2 -19.5 2t-19 -4.5t-23.5 -13.5t-29 -23q-52 -42 -70 -44.5t-36 28.5q-24 35 -22 135.5t33 323.5q7 46 2.5 63.5t-33.5 50.5q-27 30 -31.5 42.5zM256 1462q-5 5 10 9 q14 3 42 3q53 0 53 -7l-7 -14q-13 -15 -45 -12t-53 21zM529 1468q0 6 69 6h67l-31 -25q-20 -16 -32 -17.5t-36 12.5q-37 18 -37 24z" />
<glyph unicode="&#xce;" horiz-adv-x="1201" d="M21 1347q16 41 79 2q51 -33 200.5 -43t182.5 15q21 16 37 8q16 -9 92 2t94 25q10 9 8 19.5t-25 32.5q-33 34 -33 50t52.5 16t65.5 -16q14 -21 19 -44q3 -24 30.5 -28.5t46.5 14.5q15 17 59 20t56 -12q10 -18 -11 -36t-52 -18q-28 0 -83.5 -17.5t-101.5 -42.5 q-30 -14 -81 -26q-37 -5 -60.5 -20t-37.5 -39t-20 -62q-9 -45 -48 -216q-26 -115 -32 -223.5t12 -121.5q11 -7 10 -100.5t-14 -100.5q-12 -7 -2 -20q8 -14 41 8t46 12q9 -5 88.5 22.5t127.5 53.5q24 12 49 12q30 0 78 19q42 15 221 64q50 15 65 0q22 -22 -41 -40l-75 -15 q-53 -11 -83.5 -21t-69.5 -29.5t-70 -32.5q-81 -31 -137 -61q-72 -31 -83 -31q-13 0 -105 -39q-88 -37 -227.5 -47.5t-200.5 15.5q-33 12 -39.5 21t1.5 41q8 42 11 44q0 2 8 0t23 -4.5t30 -6.5q73 -16 168 -12.5t108 23.5q11 13 9.5 24t-18.5 33q-25 34 -28 135q-2 99 6 120 q6 16 22 140q11 101 39 241q22 100 14.5 126.5t-57.5 26.5q-46 0 -134.5 16.5t-123.5 32.5q-41 18 -53 18q-18 0 -39.5 28.5t-13.5 44.5zM256 1462q0 12 122 12h122l-39 -30q-131 -109 -185 -30q-20 31 -20 48z" />
<glyph unicode="&#xcf;" horiz-adv-x="1328" d="M21 251q7 18 46.5 20.5t48.5 -11.5t53.5 -14.5t53.5 -9.5q7 -7 115 -6.5t116 8.5q5 5 25 205q16 201 39 364q49 402 36 415q-12 9 -143 15q-103 3 -195.5 24t-117.5 46q-19 18 -12 39q9 22 52 22t83 -22q39 -23 185.5 -28.5t166.5 13.5q18 15 69 -2q49 -16 309 -13 q196 3 255.5 -2t87.5 -27q32 -28 15 -45q-8 -7 -27 -4q-26 9 -90 18q-56 5 -66 10q-7 6 -109 -7q-144 -16 -324 -24q-23 0 -34.5 -12t-19 -40.5t-14.5 -89.5q-30 -297 -41 -314q-5 -12 -12 -167q-8 -158 -16 -221q-7 -62 8 -72q15 -9 8 -35q-11 -30 12 -33q35 -3 308 60 q107 25 153 46q77 39 102 14q3 -6 3 -15q-5 -23 -84 -48q-76 -24 -137 -50t-81 -26q-28 0 -139 -34t-127 -47q-20 -14 -60 -7q-30 5 -198 11q-102 2 -174.5 15t-105.5 34t-23 47zM417 1462q-13 7 11 10q12 2 42 2q59 0 59 -7q0 -2 -5 -5q-21 -13 -53 -13t-54 13z" />
<glyph unicode="&#xd1;" horiz-adv-x="1145" d="M18.5 364q-0.5 14 13.5 27q24 29 74.5 217t72.5 332q46 285 85 391q16 39 45.5 37t29.5 -40q0 -36 32 -95q12 -30 32.5 -94t35.5 -121.5t35 -134.5t26 -96q35 -122 82.5 -200.5t97.5 -94.5q23 -5 44.5 8.5t21.5 35.5q0 17 21 25q16 7 37.5 47.5t21.5 64.5q0 15 26.5 47 t26.5 49q0 24 20 61q13 26 38 98.5t50 158.5t49 174t35 144q9 40 16.5 54.5t22.5 14.5q16 0 18.5 -8t-0.5 -41q-16 -92 -88 -317q-27 -88 -82 -295q-14 -44 -52 -145.5t-62 -155.5q-22 -46 -75 -96.5t-69 -35.5q-12 12 -48 12q-49 0 -103.5 75t-84.5 184q-14 51 -40 143 t-39 140q-16 65 -44 136t-37 71q-22 0 -53 -207q-21 -146 -31 -194.5t-28 -99.5q-23 -65 -28 -174q-2 -107 -11 -158q-7 -35 -15.5 -42.5t-43.5 -3.5q-30 4 -42 13t-22 42q-11 33 -11.5 47zM255 1458q-2 13 42 14l39 2q70 -2 70 -7q-2 -5 -14 -14q-40 -30 -83 -29t-54 34z M706 1474h54q53 0 70 -25q16 -28 30 -28q15 0 40 26.5t68 26.5h45l-27 -49q-29 -50 -40 -65q-13 -11 -14 -53q0 -37 -20 -68.5t-45 -31.5t-61.5 23.5t-61.5 50.5q-14 16 -15 24.5t12 23.5q42 45 -9 110z" />
<glyph unicode="&#xd3;" horiz-adv-x="1155" d="M21 896q18 140 107.5 256t205.5 151q53 15 127 5t74 -34v-22q0 -9 -83 -8q-90 7 -155 -28.5t-126 -126.5q-53 -77 -68 -117.5t-13 -104.5q0 -35 5 -61.5t15 -51t30 -63.5q124 -232 252 -283q13 -4 36 -25q24 -18 134 -18q104 -1 176.5 22t139.5 76q72 55 97 72 q35 22 70 83t48 121q10 51 6 69t-45 71q-61 85 -293 286q-31 26 -35.5 37t8.5 26q12 14 19.5 11.5t27.5 -28.5q32 -38 109 -98q60 -44 125 -109.5t67 -81.5q0 -13 20 -37q25 -26 35 -87t-7 -96q-41 -98 -126.5 -191.5t-168.5 -134.5q-61 -30 -61 -38q0 -23 -144.5 -45 t-174.5 -6q-16 7 -72 30q-53 22 -98 59q-37 30 -101 107.5t-64 93.5q0 14 -28 46q-30 39 -54.5 133t-16.5 140zM588 1428q0 34 7.5 40t48.5 6q44 0 44 -7q0 -4 -4 -9q-16 -14 -17 -39q0 -18 -27.5 -34.5t-41.5 -7.5q-10 4 -10 51z" />
<glyph unicode="&#xd4;" horiz-adv-x="1078" d="M18 1080l54 86q32 52 63 83.5t85 66.5q91 63 110 65q25 0 11 16q-7 9 -24 17q-32 14 -35 39q-2 7 0 10.5t13 6t28.5 3.5t50.5 1h98l-48 -29q-51 -29 -51 -37q0 -7 47 -9q48 -2 81 -31q28 -30 22.5 -41t-48.5 -6q-98 18 -121 -7q-13 -13 -34 -13q-28 0 -97.5 -65.5 t-97.5 -116.5q-26 -50 -30.5 -77t0.5 -98q15 -177 112 -311.5t217 -140.5q123 -5 267 58.5t241 168.5q34 35 56 35q23 0 22 39q0 51 20 62q11 5 18 -13q13 -36 -55 -127.5t-152 -152.5q-67 -44 -149 -86.5t-104 -42.5q-30 0 -35 -13q-8 -10 -102 -7.5t-125 15.5 q-114 44 -208 189q-67 102 -67 129.5t-15 44t-15 153.5zM501 1174q5 11 19 29q15 15 25.5 20.5t30.5 7.5t50 -2q62 -3 109.5 -29t161.5 -115q78 -61 128 -121t33 -78q-12 -12 -144 115q-128 125 -205 160q-57 28 -74.5 29t-61.5 -14q-79 -31 -72 -2zM719 1462q0 12 50 12 q20 0 30 -2.5t18.5 -11.5t15.5 -32q15 -33 36 -48.5t38 -4.5q4 2 14 -6.5t19 -22.5q14 -23 15.5 -31t-9.5 -15q-26 -15 -68.5 -10.5t-70.5 26.5q-24 20 -56 71.5t-32 74.5z" />
<glyph unicode="&#xd6;" horiz-adv-x="1231" d="M18.5 908.5q-0.5 22.5 14.5 72.5q23 74 94.5 148t162.5 117q28 12 62.5 30t50 26t41.5 19.5t55.5 19.5t73.5 19q118 31 172.5 31t96.5 -31q11 -7 47 -30t67.5 -44.5t64.5 -45t53.5 -43t20.5 -31.5q0 -14 -24 7q-24 22 -39 21q-14 0 -101 44q-80 44 -169 62t-152 3 q-123 -29 -170.5 -45t-72.5 -34q-37 -30 -56 -30q-18 0 -75 -55q-16 -14 -47 -43t-38 -36q-59 -51 -66.5 -129t38.5 -162q34 -63 101.5 -135.5t113.5 -97.5q44 -22 138 -31t104 9q10 12 50 13q39 0 104 27q84 37 131 54q70 28 69 44q0 4 4 10.5t12 12t18 9.5q33 14 33 25 q0 13 86 104q92 98 87 70q-3 -13 -31 -51q-30 -46 -104.5 -123t-85.5 -77q-14 0 -52 -39q-23 -22 -68.5 -49.5t-105.5 -53.5t-120 -42q-60 -18 -92.5 -21t-88.5 6q-53 7 -87.5 18.5t-63 30t-63.5 51.5q-40 37 -86.5 100.5t-46.5 82.5q0 10 -12 35q-9 14 -34 90 q-14 45 -14.5 67.5zM487 1462q-24 5 7 9q21 1 59 1h94l-74 -10q-53 -9 -86 0zM841 1472q9 2 75 0q76 0 72 -7q-3 0 -9 -1.5t-13.5 -4.5t-14.5 -5.5t-16.5 -6t-14.5 -5.5q-35 -13 -46.5 -12t-25.5 19q-21 21 -7 23zM1120 1130q0 10 11 11q13 0 28 -18.5t15 -33.5 q0 -16 -18 -2q-4 2 -8 6q-28 26 -28 37zM1187 994q0 12 14 12t14 -12.5t-13 -12.5q-6 0 -10.5 3.5t-4.5 9.5z" />
<glyph unicode="&#xd9;" horiz-adv-x="983" d="M19 1006q3 51 31 155q7 30 13.5 43t14.5 18.5t24 5.5q33 0 37 -32q3 -30 -10 -46q-17 -22 -27 -93t-2 -123q9 -68 38 -147.5t59 -119.5q33 -39 96 -103q30 -31 47 -43.5t37.5 -17.5t60.5 -11q78 -7 119 10.5t92 77.5q74 92 146 240q47 95 55 107q40 70 48.5 158 t-22.5 153q-26 67 -19 78q7 14 33 9.5t46 -25.5q21 -25 29 -110.5t-8 -107.5q-11 -16 -21 -55q-11 -42 -76 -190q-66 -148 -65 -162q0 -13 -51 -85q-95 -133 -177 -170t-198 0q-86 28 -146 90q-86 92 -121 159.5t-65 200.5q-21 85 -18 136zM464 1460q-18 11 13 12q14 2 47 2 h22t18.5 -1t14 -1.5t10 -1.5t7.5 -2t4 -3.5t1 -4.5t-2 -6q-7 -20 -29 -5q-16 7 -53.5 4.5t-52.5 6.5z" />
<glyph unicode="&#xda;" horiz-adv-x="1039" d="M21 835q11 168 11 199q1 48 13 101.5t25 69.5q11 13 35.5 15t34.5 -13q8 -13 -15 -55q-14 -28 -18.5 -86t-4.5 -211q-2 -185 7 -264t39 -134q12 -24 12 -41.5t56 -70.5q39 -35 58 -42.5t64 -3.5q51 2 83.5 15.5t86.5 52.5q64 46 174.5 163t150.5 184q48 72 89.5 182 t45.5 171q1 52 10 74q15 37 -51 74q-26 14 -30 44q-3 21 2.5 25.5t29.5 -0.5q61 -7 85 -89t-10 -180q-18 -63 -12 -71q9 -5 -9 -43q-11 -21 -61 -125q-41 -85 -124.5 -197.5t-178.5 -209t-169 -142.5q-67 -43 -169 -16t-152 102q-61 90 -89.5 228t-18.5 294zM507 1399 q11 27 19 54q7 22 62 21q46 0 46 -7q0 -4 -11 -16q-23 -23 -22 -46q0 -24 -15 -30q-13 -9 -13 -40q0 -37 -14 -38t-35 34q-28 42 -17 68z" />
<glyph unicode="&#xdb;" horiz-adv-x="943" d="M18 767q0 75 7 148t16.5 157.5t13.5 127.5q7 72 19 93t40 7q25 -11 25.5 -49t-21.5 -143q-18 -102 -20.5 -271.5t14.5 -250.5q10 -46 23.5 -72.5t41.5 -50.5q30 -28 50 -35.5t66 -7.5q45 0 61.5 4.5t34 16t42.5 20.5q44 14 80 44.5t108 120.5q88 109 121.5 166.5 t61.5 147.5q18 53 18 143t-18 145q-11 36 -20.5 44.5t-42.5 8.5q-94 1 -134 109q-25 66 -25 75t54 9q32 0 43 -4.5t11 -18.5q0 -26 33 -56.5t33 -48.5q0 -17 15.5 -24.5t28.5 4.5q16 10 67 20q48 8 60.5 -12t-21.5 -45q-23 -16 -27.5 -39.5t-2.5 -113.5q2 -125 -14 -186 q-14 -54 -58 -150t-60 -105q-14 -11 -14 -33q0 -27 -127.5 -155.5t-180.5 -154.5q-64 -33 -141.5 -33t-121.5 31q-76 53 -108.5 148t-30.5 269zM234 1454q0 13 21 16.5t86 3.5q107 0 107 -7q0 -5 -68 -39q-46 -24 -62 -26.5t-45 12.5q-39 22 -39 40z" />
<glyph unicode="&#xdc;" horiz-adv-x="980" d="M21 988q7 229 7 231q2 3 31 0q60 -9 41 -185q-18 -183 23 -337q11 -39 22.5 -64t28 -46t42.5 -49q50 -49 66.5 -57.5t56.5 -1.5q118 21 231.5 115.5t192.5 238.5q127 238 151 323q17 54 34 63q10 3 14 -14q6 -31 -12 -44q-15 -11 -8 -30q6 -12 -28.5 -94t-91.5 -191 q-32 -65 -31.5 -82.5t-27.5 -44.5q-26 -22 -39 -49q-12 -36 -93.5 -118t-125.5 -104q-63 -31 -69 -42q-8 -13 -44 -13.5t-53 -16.5q-14 -14 -56 1t-85 48.5t-79 76.5t-45 77q-11 38 -19 47q-42 63 -34 362zM248 1453q-3 7 0 11.5t17.5 6t38.5 2.5t70 1q137 0 136 -16 q0 -28 -45 -52t-95 -27.5t-83 11.5q-31 20 -31 31q0 7 -8 32zM656 1474h107q72 0 89.5 -3.5t17.5 -19.5q0 -25 34 -69q28 -38 46 -79.5t10 -50.5q-7 -7 -53 40q-40 43 -57 46.5t-39 -26.5q-13 -18 -20.5 -19.5t-20.5 8.5q-20 17 -19 48q0 33 -32 46q-34 15 -49 49z" />
<glyph unicode="&#xdf;" horiz-adv-x="909" d="M20.5 270.5q3.5 22.5 34.5 102.5q2 7 28 85t50.5 150t30.5 83q9 18 18.5 85.5t18.5 88.5q14 39 15 55q0 35 63.5 185.5t83.5 162.5q13 7 13 30q0 16 16 39t39 40.5t37 17.5q24 0 92 -37t128 -81q47 -39 100.5 -104t53.5 -89q0 -15 23 -39q21 -23 27 -76q4 -33 -1 -47.5 t-26 -31.5q-35 -28 -35 -81q0 -146 -121 -169q-29 -4 -65 -30q-37 -26 -181 -26t-181 26q-43 30 -58.5 14t-61.5 -132q-40 -95 -40 -172q0 -44 -21.5 -94t-41.5 -57q-5 -2 -14.5 10.5t-16.5 32.5q-11 36 -7.5 58.5zM269 778q0 -36 2 -52.5t9 -27t24 -23.5q23 -18 47.5 -23 t91.5 -1q42 1 70.5 6t56.5 15t64 28q74 35 97 55.5t13 42.5q-10 30 -52.5 43.5t-95.5 4.5q-113 -18 -167.5 -4.5t-43.5 57.5q6 24 53 33.5t185 15.5q65 3 100 7.5t56 12.5t19 21.5t-9 32.5q-9 16 -22 36t-29.5 40.5t-35 41.5t-37 40.5t-36 37t-32.5 29.5t-26.5 19.5 t-19.5 7.5q-11 0 -28.5 20t-40.5 20t-56.5 -42.5t-42.5 -83t-33 -73.5q-12 -18 -25.5 -59t-26.5 -93t-18 -67q-11 -39 -11 -118z" />
<glyph unicode="&#xe0;" horiz-adv-x="770" d="M22 673q-10 46 9 97.5t61 96.5q51 51 125 96.5t139 63.5q93 28 164 2.5t78 -85.5q3 -42 -25 -58q-35 -18 -57 -3q-9 7 -2 16q7 15 -24 47q-24 24 -38 25.5t-60 -9.5q-144 -39 -241 -138q-51 -54 -58 -99t29 -113q33 -68 68 -84t125 -2q63 9 94 21t78 46q57 44 79 86 t22 110q0 90 42 108q26 11 52 -18q18 -24 17 -108.5t-22 -116.5q-18 -28 -22 -96t12 -79q13 -6 13 -34q0 -17 6.5 -21t27.5 0q33 9 40 -20.5t-19 -71.5q-14 -24 -27 -31.5t-41 -3.5q-48 4 -62.5 24t-31.5 99q-16 92 -29 92q-11 0 -69 -37q-57 -39 -149 -54t-140 3 q-64 28 -102 86t-62 163zM315 1458q-7 13 15 14q9 2 24 2q31 0 56 -15t84 -75q90 -92 113 -132q22 -44 35 -45q12 0 12 -46t-20 -55t-52 20q-31 28 -38 28q-8 0 -36.5 26.5t-54 56t-25.5 37.5q0 10 -29.5 62t-52.5 78q-22 28 -31 44z" />
<glyph unicode="&#xe1;" horiz-adv-x="855" d="M21 667q5 16 25.5 41.5t50.5 53t68.5 58t81.5 56.5q35 22 83 53t50 33q28 16 92 16q36 2 55.5 -4t40.5 -26q33 -32 33 -62q0 -16 -9.5 -21t-37.5 -5q-49 0 -54 21q-11 18 -36 18q-28 0 -92 -30t-106 -63q-48 -39 -58 -39q-7 0 -60 -55q-118 -129 16 -230q105 -82 230 -19 q104 49 135.5 76t43.5 73q17 55 9 85q-7 24 9 47q9 15 20.5 17t30.5 -7q53 -18 60 -87t-37 -131q-22 -29 -21.5 -55t18.5 -145q8 -48 -8 -69.5t-61 -21.5q-40 0 -56.5 23.5t-16.5 76.5q0 40 -13 43.5t-64 -21.5q-48 -24 -132 -31q-51 -4 -74 -1t-42 19q-33 26 -44 26 q-9 0 -57 55q-36 42 -59.5 117.5t-13.5 114.5zM510 1211q9 30 98.5 121.5t130.5 109.5q44 18 60.5 17t28.5 -23q14 -30 9 -38t-56 -28q-57 -26 -125 -120q-70 -92 -92 -103q-14 -6 -29 2t-21.5 25.5t-3.5 36.5z" />
<glyph unicode="&#xe2;" horiz-adv-x="812" d="M22 832q6 40 44 90.5t90.5 93t99.5 59.5q62 20 86.5 23t72.5 -5q40 -9 62.5 -40t12.5 -67q-5 -20 -14.5 -26.5t-30.5 -2.5q-35 3 -39 35q-2 11 -8 17t-16.5 9.5t-33.5 3.5q-51 0 -125 -42t-101 -84q-34 -55 -22.5 -134.5t58.5 -123.5q25 -22 42.5 -26.5t59.5 0.5 q33 4 66 18.5t71.5 44t96.5 85.5q96 91 96 178q0 37 34 53.5t55 -8.5q16 -18 10 -56q-5 -28 -19 -197q-12 -166 9 -229q18 -65 10 -91q-7 -34 8 -51q20 -24 5.5 -49t-48.5 -25q-42 0 -56 45.5t-18 187.5q-3 160 -16 173q-10 11 -72 -44q-56 -53 -72 -54q-12 0 -42 -32 q-28 -28 -93 -39.5t-114 5.5q-70 23 -117 119t-32 186zM81 1254q11 22 23 26t44 -1q47 -7 134 33q101 44 140 58q49 14 67 27q12 11 64 10.5t81 -12.5q36 -13 63 -77q70 -159 89.5 -223.5t-1.5 -84.5q-21 -18 -51 -11q-34 9 -46.5 20t-18.5 33.5t-9 75.5q-8 177 -74 193 q-35 7 -120 -25q-88 -35 -103 -35q-18 0 -52 -24q-59 -41 -113 -61t-73 -10q-70 37 -44 88z" />
<glyph unicode="&#xe4;" horiz-adv-x="818" d="M22 579q-8 31 6 105t35 95q21 23 20 43q0 16 44 60.5t101 86.5t91 54q59 21 67 21.5t31 -10.5q24 -12 38 -53q8 -26 7 -35.5t-14 -14.5q-20 -8 -35 7q-37 37 -117 -6.5t-146.5 -128t-66.5 -152.5q0 -124 133 -124q40 0 77 12t107 49q114 59 151 91q40 35 70 51 q23 16 30 30t7 53q0 70 35 82t85 -44q20 -20 23 -30t-8 -25q-13 -16 -45 -80q-18 -41 -21.5 -76t-0.5 -137q8 -151 30 -183q16 -28 10.5 -59t-31.5 -53q-12 -9 -23.5 -4.5t-32.5 26.5q-23 25 -30 47t-7 77q-2 79 7 181q11 93 -2 103q-5 4 -21 0t-32.5 -12.5t-29.5 -17.5 t-13 -15q0 -11 -83 -55q-72 -35 -138 -70q-53 -28 -133 -28q-55 2 -72.5 9.5t-48.5 44.5q-46 51 -54 85zM190 1240q0 21 35 61q23 27 37 33t40 2q9 -1 19.5 -5.5t19.5 -10.5t19.5 -12.5t17.5 -13.5t12.5 -14.5t9.5 -14t4 -11.5q0 -18 -41 -39q-41 -24 -41 -33 q0 -15 -26.5 -27t-48.5 -7q-13 4 -27 20t-22 36t-8 36zM540 1241.5q-2 12.5 9 24.5q18 23 45 19.5t51 -29.5q17 -21 31.5 -25.5t47.5 -1.5q32 6 43.5 2.5t17.5 -16.5q11 -26 -30 -56.5t-86 -30.5q-41 0 -64 14.5t-49 60.5q-14 26 -16 38.5z" />
<glyph unicode="&#xe7;" horiz-adv-x="941" d="M20.5 426q-4.5 22 0.5 64q11 69 44 126q29 49 115 139.5t104 90.5q14 0 85 46q51 35 141 86q150 81 185 7q16 -41 17 -54q0 -21 -22.5 -25.5t-42.5 12.5q-14 13 -34 11t-84 -28q-177 -69 -328 -224q-71 -72 -93.5 -110t-22.5 -80q0 -41 10 -57.5t54 -47.5 q18 -15 37.5 -21.5t46.5 -10.5t77 -5q165 -6 295 40q31 15 102.5 29.5t106.5 33.5q62 28 86.5 25t24.5 -38q0 -26 -14 -35t-81 -26q-98 -24 -160 -52q-54 -26 -121 -38q-63 -13 -72 -26q-7 -12 19 -50q28 -42 33 -60q7 -21 -10.5 -68.5t-31.5 -47.5q-11 0 -23 -25 q-5 -21 -35.5 -38t-64.5 -25.5t-64.5 -4.5t-37.5 22q-9 21 76 100l80 76l-24 49q-16 39 -33.5 48t-91.5 21q-92 14 -138 39t-81 77q-25 33 -29.5 55z" />
<glyph unicode="&#xe8;" horiz-adv-x="1073" d="M21.5 662.5q4.5 25.5 28.5 76.5q14 33 29.5 57t22.5 24q10 0 20 26q5 21 83.5 86t130.5 95q40 21 107 13q44 -4 65 -16t58 -55q46 -51 52.5 -75t-15.5 -68q-46 -95 -193 -168q-39 -18 -114.5 -20t-109.5 14q-53 28 -68.5 19.5t-12.5 -63.5q7 -70 39.5 -111.5t95 -60.5 t161.5 -19q166 0 279 24.5t258 93.5q102 45 119 19q7 -12 -21 -34t-72 -41q-51 -21 -160 -66q-144 -63 -311 -87.5t-237 6.5q-38 16 -72 27q-61 16 -104 79t-56 153q-7 46 -2.5 71.5zM155 769l42 -25q55 -28 140 -5.5t157 85.5q33 29 34 50.5t-28 48.5q-30 28 -59.5 34.5 t-71.5 -6.5q-90 -24 -172 -129zM210 1341q-2 38 22 50q42 27 79 -42q46 -93 87 -81q24 7 42 -11t74 -28q94 -14 52 -56q-24 -25 -108.5 -31t-109.5 14q-14 10 -23.5 6.5t-18.5 -1.5t-13 19q-7 28 -19 27.5t-12 23.5q0 26 -26 50q-24 22 -26 60z" />
<glyph unicode="&#xe9;" horiz-adv-x="853" d="M19.5 792.5q4.5 14.5 39.5 27.5q32 11 46 42q26 57 53.5 92.5t92.5 92.5q92 81 180 114t98 28q9 -7 30 7q28 16 86.5 11t78.5 -25q17 -21 17 -29t-17 -34q-29 -46 -171.5 -172.5t-165.5 -126.5q-11 0 -30 -18q-11 -14 -67 -37t-67 -31q-21 -18 -54 -22q-51 -7 -34 -67 q16 -59 75 -89q14 -7 29 -11q35 -7 106.5 9t111.5 42q39 24 70 23q30 0 35 13q8 11 57 20q44 8 74 25q28 18 83.5 -3.5t58.5 -52.5q4 -21 -1.5 -35t-16 -16t-21.5 7q-59 59 -360 -81q-59 -28 -154 -30q-67 0 -89 6.5t-58 34.5q-16 12 -29.5 29.5t-21 30t-16.5 38t-13 36 t-13 44.5t-10 41q-17 52 -12.5 66.5zM166 842.5q-17 -29.5 3 -40.5q11 -7 90 34.5t163 97.5q57 41 102 67q37 24 88 71t51 56q0 16 -32 16.5t-90 -13.5t-128 -38q-44 -17 -73.5 -41.5t-88.5 -96.5q-68 -83 -85 -112.5zM276 1233q0 48 63 146q44 68 61 81.5t50 11.5 q32 0 33 -1q2 -4 -13 -9q-16 -8 -64.5 -91.5t-48.5 -107.5q0 -13 17 -43q17 -26 1 -40t-55 -4q-29 6 -36.5 15t-7.5 42z" />
<glyph unicode="&#xea;" horiz-adv-x="900" d="M37 759q39 73 181 177q65 48 101.5 69.5t84.5 37.5q50 16 85 9q44 -5 67 -5q30 0 67 -34q31 -29 27.5 -57.5t-49.5 -85.5q-90 -110 -214 -138q-57 -15 -78.5 -12t-72.5 26q-63 30 -79.5 31.5t-38.5 -23.5q-28 -30 -8.5 -76t71.5 -71q46 -25 136.5 -39t161.5 -6 q47 4 151 10q86 1 146 33q59 29 72 16q12 -13 7 -27.5t-30 -30.5t-64 -32q-49 -18 -101 -24.5t-181 -8.5q-210 -4 -301.5 20t-135.5 96t-5 145zM190 1180q0 18 40.5 69.5t54.5 51.5q13 0 69 46q46 39 73 44.5t62 -16.5q20 -14 33 -12t44 25q85 61 127 0q7 -11 24 -31.5 t24 -32.5t17.5 -32t13.5 -42q13 -76 41 -148t46 -80q12 -10 19.5 -25.5t5 -29.5t-15.5 -14q-36 -3 -61.5 5t-45 33.5t-32 67.5t-23.5 107q-18 109 -44 137q-18 18 -27 18t-34 -20q-33 -27 -54 -27t-51 -24q-30 -22 -85 -48q-49 -23 -85 -52q-32 -30 -60 -31q-11 0 -25 4.5 t-25.5 13t-18.5 20t-7 23.5zM253 870.5q-5 -10.5 13 -28.5q40 -29 111 -16t130 59t37 83q-8 10 -62 10t-95 -10q-33 -11 -88 -55q-41 -32 -46 -42.5z" />
<glyph unicode="&#xeb;" horiz-adv-x="965" d="M21 680q5 92 42 166q30 59 109.5 143t109.5 86q33 1 51.5 7.5t38 12.5t52.5 6q55 0 120.5 -34.5t120.5 -93.5q24 -26 35.5 -42.5t16 -33t4.5 -46.5q2 -44 -8.5 -63t-60.5 -65q-82 -79 -194 -120t-224 -33q-83 9 -102 16q-26 11 -23 -13q3 -35 53 -100q59 -72 108.5 -91 t167.5 -11q208 14 384 75q81 28 105 27q23 0 23 -10q-2 -21 -62 -39q-2 -2 -5 -2q-88 -28 -149 -57q-25 -12 -44.5 -12.5t-42.5 -11.5q-55 -30 -111 -39q-171 -24 -259.5 -4.5t-141.5 91.5q-35 46 -84 129q-24 45 -29.5 72t-0.5 90zM85.5 709q8.5 -23 80.5 -47 q59 -17 89 -18.5t119 8.5q124 18 159 43q28 22 55 39q47 31 71.5 70.5t10.5 71.5q-14 40 -86 98t-112 66q-57 8 -85 4.5t-74 -24.5q-51 -26 -107.5 -86t-87.5 -127q-41 -75 -32.5 -98zM140 1321q17 43 99 -7q43 -26 51.5 -60.5t-23.5 -68.5q-51 -55 -96 -5q-21 21 -30.5 69 t-0.5 72zM443 1275q9 15 33 20.5t49.5 3t45 -13.5t19.5 -26q0 -14 22 -42q18 -18 16 -26.5t-30 -31.5q-37 -33 -65 -23q-50 14 -78 59t-12 80z" />
<glyph unicode="&#xee;" horiz-adv-x="626" d="M19 1210.5q2 8.5 23 24.5q30 26 48 26t84 51q121 96 165 87q21 -5 32 8q26 42 92 -16q72 -63 86 -141q2 -11 2 -21q0 -33 13 -42q15 -9 34 -56q12 -31 11 -43.5t-16 -35.5q-39 -46 -42 -14q0 18 -26.5 42t-26.5 51q0 30 -21 54q-21 28 -20 62q0 35 -28 65 q-33 35 -73.5 26t-112.5 -70q-149 -127 -176 -127q-8 0 -34 35q-16 26 -14 34.5zM153 371q-4 25 2 102q19 299 28 331q12 35 51 -8q9 -10 13 -27.5t5 -58.5t-1 -111q-2 -103 1 -145.5t15.5 -63.5t13.5 -35t-8 -35q-15 -33 -43 -33t-53 35q-20 24 -24 49zM189 1121.5 q5 25.5 52 51.5q35 18 47.5 18t45.5 -15q35 -20 60 -28q57 -18 -35 -121q-51 -57 -75 -54.5t-66 70.5q-34 53 -29 78.5z" />
<glyph unicode="&#xef;" horiz-adv-x="495" d="M33 1120q23 34 37 34q21 0 56.5 -23t35.5 -38q0 -23 -36 -42t-65 -11q-68 18 -28 80zM301.5 1090.5q-9.5 37.5 11.5 70.5q23 33 28 33q2 0 47 -20t67 -31q27 -14 24.5 -47.5t-31.5 -61.5q-28 -26 -31.5 -44.5t16.5 -34.5q18 -13 5 -98q-10 -87 -14 -136q-2 -69 10 -186.5 t23 -123.5q13 -7 11 -32t-16 -38q-15 -11 -41 10.5t-46 61.5q-22 41 -18.5 203t27.5 298q9 54 5.5 68.5t-31.5 39.5q-37 31 -46.5 68.5z" />
<glyph unicode="&#xf3;" horiz-adv-x="915" d="M18.5 706q-4.5 72 18.5 108q16 30 74.5 79.5t109.5 79.5q107 61 146 15q9 -12 5.5 -19t-26.5 -16q-38 -13 -45 -13q-8 0 -83.5 -54t-108.5 -84q-41 -37 -7.5 -131t121.5 -192l74 -79h103q68 1 111 12.5t87 41t111 91.5q96 87 119 150l23 59l-44 44q-29 30 -49.5 36.5 t-92.5 4.5l-101 -2l6 46q12 70 48 77.5t116 -42.5q121 -81 151.5 -131t-9.5 -101q-26 -32 -35 -63q-9 -32 -90.5 -121t-122.5 -115q-260 -162 -424 -18q-81 72 -151 206q-30 59 -34.5 131zM438.5 1226q-0.5 7 15.5 33q16 38 93 101q46 37 71.5 49t56.5 12q53 0 60 -22 q7 -18 -11 -31.5t-51 -13.5q-21 0 -48 -20t-50.5 -49t-29.5 -56q-7 -29 -26 -42.5t-30 4.5q-7 11 -34 20q-16 8 -16.5 15z" />
<glyph unicode="&#xf4;" horiz-adv-x="980" d="M21 667q7 49 25 87q16 35 82.5 90t100.5 63q35 9 49 27q7 7 40.5 21t65 28t36.5 27q6 24 44.5 23t71.5 -27q34 -26 44 -25q13 0 94.5 -79.5t108.5 -118.5q30 -41 30 -79q0 -72 -79.5 -174t-171.5 -154q-61 -33 -158.5 -52.5t-123.5 -1.5q-21 11 -64 23q-46 11 -96 68 t-79.5 130t-19.5 124zM98 686q-9 -41 16 -104.5t66 -112.5t75 -49q22 0 30 -14q11 -21 104 -8.5t144 38.5q72 37 102 62.5t72 83.5q35 46 44 67t3 55q-5 42 -37.5 83t-106.5 94q-48 35 -82 41.5t-110 -8.5q-93 -20 -201 -96t-119 -132zM266.5 1196.5q-0.5 10.5 11.5 32.5 q23 41 83.5 70t108.5 22q31 -5 48.5 0t37.5 25q35 30 69 53q33 20 66 19q21 -2 31 -15t20 -56q21 -70 73 -143t103 -100q33 -20 41.5 -30t-1.5 -22q-14 -18 -59 -18q-31 0 -66 23t-65.5 58t-53.5 81t-30 88q-4 23 -10.5 40.5t-11.5 17.5q-13 0 -89 -68q-79 -67 -84 -67 q-11 0 -60 -33q-93 -62 -145 -6q-17 18 -17.5 28.5z" />
<glyph unicode="&#xf6;" horiz-adv-x="823" d="M28 774q16 39 61.5 91.5t86.5 78.5q35 21 45.5 21.5t17.5 -17.5q6 -15 -19 -44.5t-41.5 -29.5t-53.5 -61t-37 -90q0 -41 31.5 -101.5t68.5 -88.5q51 -39 131.5 -39t169.5 42q73 34 150 82.5t77 61.5q0 18 26 37q17 13 20 23.5t-4 28.5q-11 29 -41.5 40t-102.5 11 q-69 0 -116 21q-44 18 -90 10q-32 -5 -60 10t-30.5 37t18.5 42q12 10 27 9t50 -18q53 -28 87.5 -37t95.5 -13q61 -5 112.5 -29t78.5 -63q18 -26 20 -33.5t-12 -16.5q-25 -13 -32 -46q-9 -33 -21 -33q-14 0 -14 -18q0 -21 -31 -37q-15 -9 -111 -74q-81 -57 -140 -76 q-56 -18 -143 -22.5t-122 12.5q-76 29 -129.5 145t-23.5 184zM144 1209q-4 31 3.5 44t36.5 34q39 24 55.5 24.5t45.5 -22.5q30 -26 25 -58q-8 -26 -8 -39q-1 -12 -43.5 -25t-72.5 -10q-24 2 -31 11.5t-11 40.5zM490.5 1208q-1.5 14 29.5 27q26 11 61 4.5t55 -26.5 q13 -12 13 -19t-13 -18q-53 -51 -112 -8q-32 26 -33.5 40z" />
<glyph unicode="&#xf9;" horiz-adv-x="816" d="M20.5 839.5q5.5 100.5 23.5 120.5q14 21 39 16q12 -1 15.5 -20.5t1.5 -81.5q-4 -96 16.5 -196.5t52.5 -142.5q55 -72 157 -63q51 3 120.5 43.5t139.5 108t126 146.5q28 41 34 59.5t-4 40.5q-12 39 -46 41t-82 -30q-44 -30 -59 -32.5t-22 19.5q-13 32 11 63t68 38 q51 13 83.5 3t69.5 -49q37 -37 34 -71t-48 -118q-35 -65 -153.5 -189.5t-143.5 -124.5q-11 0 -41 -24.5t-44 -19.5q-18 7 -35 -7q-24 -21 -78 -8t-89 49q-42 38 -70.5 77.5t-45 82t-23.5 88.5q-13 81 -7.5 181.5zM174 1372q16 16 56.5 -1.5t51.5 -47.5q12 -31 48.5 -73.5 t52.5 -42.5q17 0 60 -46l44 -44l-32 -22q-31 -20 -42 -8q-14 13 -51.5 13.5t-37.5 11.5q0 12 -29 44q-90 105 -116 151.5t-5 64.5z" />
<glyph unicode="&#xfa;" horiz-adv-x="684" d="M18 816q0 48 5 59t21 11q55 0 56 -145q2 -129 62 -210q86 -123 295 79q137 137 155 266q16 98 -13 97q-9 0 -20 -5q-28 -13 -47.5 -2.5t-17.5 38.5t30 46q38 26 68 15t45.5 -58t9.5 -113q-15 -188 -195 -378q-83 -83 -196 -133q-72 -31 -72 -3q0 11 -42 33 q-35 16 -62.5 49.5t-34.5 68.5q-46 192 -47 285zM349.5 1256q12.5 34 68.5 95q50 55 75 65t47 -16q9 -12 5.5 -23t-27.5 -35q-37 -35 -70 -107q-30 -60 -48 -69.5t-39 23.5q-24 33 -11.5 67z" />
<glyph unicode="&#xfb;" horiz-adv-x="814" d="M18 814q4 72 9 89t23 17q8 0 14 -3t9.5 -15t5.5 -31.5t6 -57.5q7 -104 42 -181q31 -65 62.5 -97t81.5 -48q33 -13 55 -10.5t78 23.5q111 40 204 130q6 5 21.5 28.5t34 51t36 58t28.5 48.5q26 50 20 84t-36 34q-44 4 -50 4q-21 3 -18 39t23 50q22 18 8 35q-13 18 -37 97 q-9 37 -16.5 58t-15.5 31.5t-17.5 9t-22.5 -13.5q-24 -24 -35 -24q-13 0 -93 -54q-70 -51 -113 -56.5t-70 33.5q-26 33 -17 70t49 64q23 18 33 20.5t23 -8.5q22 -18 14 -37q-7 -18 8 -17q11 0 18 12q8 14 37 14q16 0 47 19.5t63 43t42 27.5q27 16 44 17q14 0 30 -11t27 -28 t11 -31q0 -26 28 -79q26 -55 25 -72q0 -15 32 -63q31 -44 30 -121t-34 -163q-39 -105 -89.5 -172t-155.5 -151q-72 -59 -166 -73.5t-164 20.5q-79 39 -127.5 149.5t-44.5 240.5z" />
<glyph unicode="&#xfc;" horiz-adv-x="737" d="M19.5 862.5q4.5 23.5 28.5 23.5q53 0 66 -134q9 -88 26 -138q18 -53 55 -97.5t60 -41.5q24 6 44 -12q14 -11 31.5 -6.5t65.5 30.5q149 81 220 213q35 67 37.5 98.5t-23.5 54.5q-18 15 -29 17t-39 -10q-38 -16 -59 0q-21 15 -20 43.5t22 53.5q21 22 30 20.5t61 -24.5 q84 -37 103.5 -124.5t-36.5 -166.5q-33 -50 -33 -63q0 -20 -99.5 -114t-141.5 -116q-55 -28 -105 -19t-105 56q-57 44 -57 62q0 16 -27 46q-16 24 -28 67.5t-39 194.5q-13 63 -8.5 86.5zM149 1187q0 30 19.5 47.5t19.5 33.5q0 17 14 23q55 18 99 -13t53 -93 q9 -55 -10.5 -72.5t-69.5 0.5q-42 17 -60 7q-14 -8 -39.5 17.5t-25.5 49.5zM535 1229q9 18 22 25t45 7t48.5 -8.5t37.5 -32.5q31 -36 33 -48.5t-23 -40.5q-18 -26 -52 -25.5t-63.5 18t-45 47t-2.5 58.5z" />
<glyph unicode="&#x2000;" horiz-adv-x="737" />
<glyph unicode="&#x2001;" horiz-adv-x="1474" />
<glyph unicode="&#x2002;" horiz-adv-x="737" />
<glyph unicode="&#x2003;" horiz-adv-x="1474" />
<glyph unicode="&#x2004;" horiz-adv-x="491" />
<glyph unicode="&#x2005;" horiz-adv-x="368" />
<glyph unicode="&#x2006;" horiz-adv-x="245" />
<glyph unicode="&#x2007;" horiz-adv-x="245" />
<glyph unicode="&#x2008;" horiz-adv-x="184" />
<glyph unicode="&#x2009;" horiz-adv-x="294" />
<glyph unicode="&#x200a;" horiz-adv-x="81" />
<glyph unicode="&#x2010;" d="M29.5 650q-20.5 17 2.5 47q18 29 40 29q21 0 109 -44q48 -22 81 -22q37 0 81 -15q37 -12 227 0.5t209 29.5q15 13 30 7q13 -9 50 11q12 5 33 10.5t43.5 8t43 2.5t33.5 -3.5t13 -10.5q0 -11 -46.5 -32t-69.5 -21q-28 0 -79 -26q-39 -18 -104.5 -32t-147.5 -21t-167 -7 q-103 0 -147 6t-116 32q-98 34 -118.5 51z" />
<glyph unicode="&#x2011;" d="M29.5 650q-20.5 17 2.5 47q18 29 40 29q21 0 109 -44q48 -22 81 -22q37 0 81 -15q37 -12 227 0.5t209 29.5q15 13 30 7q13 -9 50 11q12 5 33 10.5t43.5 8t43 2.5t33.5 -3.5t13 -10.5q0 -11 -46.5 -32t-69.5 -21q-28 0 -79 -26q-39 -18 -104.5 -32t-147.5 -21t-167 -7 q-103 0 -147 6t-116 32q-98 34 -118.5 51z" />
<glyph unicode="&#x2012;" d="M29.5 650q-20.5 17 2.5 47q18 29 40 29q21 0 109 -44q48 -22 81 -22q37 0 81 -15q37 -12 227 0.5t209 29.5q15 13 30 7q13 -9 50 11q12 5 33 10.5t43.5 8t43 2.5t33.5 -3.5t13 -10.5q0 -11 -46.5 -32t-69.5 -21q-28 0 -79 -26q-39 -18 -104.5 -32t-147.5 -21t-167 -7 q-103 0 -147 6t-116 32q-98 34 -118.5 51z" />
<glyph unicode="&#x2013;" horiz-adv-x="1059" d="M29 650q-21 17 2 47q19 29 41 29t111 -44q49 -22 83 -22q37 0 82 -15q38 -12 231.5 0.5t212.5 29.5q16 13 31 7q13 -9 51 11q12 5 33.5 10.5t44.5 8t44 2.5t34 -3.5t13 -10.5q0 -11 -47.5 -32t-70.5 -21q-29 0 -81 -26q-39 -18 -106 -32t-150.5 -21t-170.5 -7 q-104 0 -149 6t-118 32q-100 34 -121 51z" />
<glyph unicode="&#x2014;" horiz-adv-x="2083" d="M38.5 650q-41.5 17 5.5 47q36 29 81 29q43 0 222 -44q98 -22 165 -22q76 0 165 -15q76 -12 463 0.5t426 29.5q30 13 61 7q26 -9 102 11q24 5 67 10.5t88.5 8t87.5 2.5t68.5 -3.5t26.5 -10.5q0 -11 -94.5 -32t-141.5 -21q-57 0 -161 -26q-80 -18 -213.5 -32t-300.5 -21 t-340 -7q-210 0 -299.5 6t-236.5 32q-200 34 -241.5 51z" />
<glyph unicode="&#x2019;" horiz-adv-x="274" d="M18 993q-4 39 12 48q12 7 12 48q0 37 26 54q28 18 27 31q0 11 25 66q26 50 44 114q17 60 31 69q7 5 21 -3t26.5 -23t13.5 -29q6 -26 -7 -108t-22 -87q-11 -7 -11 -35q0 -32 -33 -84q-37 -63 -56 -96q-41 -75 -88 -20q-17 16 -21 55z" />
<glyph unicode="&#x201c;" horiz-adv-x="607" d="M18 79q2 16 13 21t48 2q60 -6 98.5 21.5t38.5 75.5q0 24 -7 40t-16 17.5t-22 -9.5q-14 -15 -44 17q-28 26 -59 49q-20 13 -22 22.5t7 27.5q16 28 35 27t86 -31q75 -35 104.5 -73t29.5 -94q0 -41 -12 -62t-64 -75q-51 -55 -69.5 -65.5t-51.5 -3.5q-39 7 -68 35.5t-25 57.5 zM397 421q-6 15 4 38q34 63 111 -24q51 -57 65 -89.5t14 -97.5q0 -54 -11.5 -99t-33.5 -74t-50 -35q-35 -7 -58 4t-23 35q0 16 35 53q46 55 43 118t-55 117q-35 39 -41 54z" />
<glyph unicode="&#x201d;" horiz-adv-x="702" d="M21 1080q-4 48 1.5 71t28.5 60q34 50 93 115q85 88 114 28q9 -16 3 -27t-38 -31q-44 -32 -84.5 -90.5t-40.5 -93.5q0 -32 25.5 -51.5t43.5 -2.5q17 13 64 13t70 -11q56 -31 -34 -75q-35 -17 -59.5 -20t-75.5 3q-77 10 -92 24q-12 12 -19 88zM435 994q-46 95 35 223 q54 79 96 116q37 30 49.5 32.5t29.5 -19.5q13 -13 5 -27t-49 -53q-46 -44 -74.5 -94t-28.5 -85q0 -26 35 -65q14 -17 24.5 -24.5t26 -10t35.5 0.5q63 4 67 -26q2 -28 -46 -46q-13 -5 -28 -7q-39 -9 -98.5 20t-78.5 65z" />
<glyph unicode="&#x2022;" horiz-adv-x="554" d="M18 754q-2 28 9.5 65.5t29 70t35.5 44.5q26 21 145 19t157 -22q35 -17 51 -17q14 0 56 -36q28 -23 33.5 -36.5t0.5 -43.5q-6 -33 -58.5 -99.5t-72.5 -66.5q-12 0 -80 -33q-61 -31 -104.5 -32t-96.5 29q-46 26 -73.5 68t-31.5 90zM100 807q0 -5 4.5 -9.5t9.5 -4.5 q13 0 13 13.5t-13.5 13.5t-13.5 -13zM114 735q0 -16 13 -27t21 -4q3 2 2 11t-4 17q-11 29 -26 20q-6 -5 -6 -17zM281.5 766.5q3.5 -10.5 14 -10.5t21.5 9q14 14 2 28q-15 14 -32 -4q-9 -12 -5.5 -22.5zM348 807q-7 -11 13 -28q11 -9 15 -9t4 13q0 28 -19 31q-7 0 -13 -7z " />
<glyph unicode="&#x202f;" horiz-adv-x="294" />
<glyph unicode="&#x205f;" horiz-adv-x="368" />
<glyph unicode="&#x20ac;" horiz-adv-x="1391" d="M23 691q12 21 49 25q30 3 37 10.5t11 33.5q2 38 17 95q12 42 7 59t-46 59q-55 61 -56 74q0 9 16 12t36 -2t35 -16q29 -20 63.5 2.5t91.5 99.5q56 76 132 147.5t126 95.5q48 24 120.5 22.5t106.5 -27.5q35 -28 35 -48q0 -18 -20.5 -25.5t-37.5 4.5q-24 18 -74.5 22 t-86.5 -11.5t-77.5 -46t-79 -71t-67.5 -83.5q-51 -79 -51 -86t90 0q125 11 173 35q23 14 78 22q119 16 149 17.5t42 -13.5q17 -21 8 -35.5t-39 -14.5q-39 0 -136.5 -22t-129.5 -37q-40 -20 -60.5 -20t-55.5 -18q-18 -10 -54.5 -18.5t-76.5 -15.5t-59 -15q-20 -7 -26.5 -15 t-8.5 -24t-2 -62q0 -42 2 -59.5t9 -26t21 -14.5q33 -12 77 -7q32 5 79.5 9.5t98.5 10.5t83 10q70 7 79 -9q3 -11 2 -18t-20 -14t-51.5 -13.5t-91.5 -16.5q-147 -22 -191 -29q-44 -6 -49 -22.5t26 -60.5q35 -51 78 -63q42 -5 59 -22q15 -10 103.5 -3t106.5 20q9 9 54 20 q24 6 155.5 65.5t143.5 65.5q11 3 29 12t30 14t27.5 11.5t33 10.5t38.5 6q57 9 81 21q31 17 82.5 15.5t66.5 -20.5q18 -21 9 -42t-33 -9q-30 12 -102 4t-137 -34q-55 -22 -174.5 -78.5t-175.5 -87.5q-148 -82 -288 -85q-50 0 -72 4t-40.5 13t-53.5 37q-68 49 -96 111 q-30 59 -56.5 82.5t-59.5 23.5q-39 0 -56.5 19t-5.5 40z" />
<glyph unicode="&#x25fc;" horiz-adv-x="1059" d="M0 0v1060h1060v-1060h-1060z" />
</font>
</defs>
</svg>
